<svg xmlns="http://www.w3.org/2000/svg" width="163" height="108" fill="none" viewBox="0 0 163 108">
  <g clip-path="url(#a)" opacity=".12">
    <path fill="#fff" d="M144.466 67.557c13.905 0 23.276 9.828 23.276 24.39 0 13.104-10.77 24.021-25.358 24.021-15.978 0-27.785-13.104-27.785-33.12 0-45.495 32.648-63.693 53.143-65.88v20.016c-13.897 2.547-29.521 16.74-30.22 32.4.699-.36 3.472-1.827 6.944-1.827Zm-70.849 0c13.888 0 23.268 9.828 23.268 24.39 0 13.104-10.77 24.021-25.358 24.021-15.978 0-27.785-13.104-27.785-33.12 0-45.495 32.648-63.693 53.143-65.88v20.016c-13.897 2.547-29.52 16.74-30.22 32.4.7-.36 3.471-1.827 6.952-1.827Z"/>
  </g>
  <defs>
    <clipPath id="a">
      <path fill="#fff" d="M.396.857h161.79v106.486H.396z"/>
    </clipPath>
  </defs>
</svg>
