<svg width="90" height="90" viewBox="0 0 90 90" fill="none" xmlns="http://www.w3.org/2000/svg">
    <path d="M73.3707 28.2378H71.1864V32.6063H83.2131C84.1182 32.6063 84.9411 33.1438 85.3075 33.968L85.3085 33.9704C85.6744 34.8051 85.5134 35.7655 84.9093 36.4379L84.9094 36.4379L84.9074 36.4401C80.6069 41.1706 80.6069 48.3059 84.9074 53.0364L84.9074 53.0364L84.9093 53.0386C85.5134 53.711 85.6744 54.6715 85.3085 55.5062L85.3075 55.5085C84.9411 56.3327 84.1182 56.8702 83.2131 56.8702H16.1058C9.4142 56.8702 3.97387 51.4299 3.97387 44.7383C3.97387 38.0467 9.4142 32.6063 16.1058 32.6063H52.2911V28.2378H6.2634C5.35832 28.2378 4.5354 27.7003 4.16908 26.8761L4.16805 26.8737C3.80213 26.039 3.96317 25.0785 4.56718 24.4061L4.56918 24.404C8.86963 19.6735 8.86963 12.5382 4.56917 7.80768L4.56719 7.80547C3.96317 7.13308 3.80213 6.17263 4.16805 5.3379L4.16935 5.33497C4.34981 4.9304 4.64342 4.58665 5.01479 4.34516C5.38616 4.10366 5.81947 3.97472 6.26245 3.97388H6.2634H73.3707C80.0623 3.97388 85.5027 9.41421 85.5027 16.1058C85.5027 22.7974 80.0623 28.2378 73.3707 28.2378ZM55.9544 45.6751L55.9526 45.6765C55.5534 45.973 55.0642 46.133 54.5807 46.133C53.9735 46.133 53.3911 45.8918 52.9617 45.4625C52.5324 45.0331 52.2911 44.4507 52.2911 43.8435V37.1854H16.1058C11.9439 37.1854 8.55293 40.5764 8.55293 44.7383C8.55293 48.9002 11.9439 52.2912 16.1058 52.2912H78.8815C77.7079 49.9504 77.0941 47.3645 77.0941 44.7383C77.0941 42.112 77.7079 39.5261 78.8815 37.1854H71.1864V43.8435C71.1864 44.2687 71.068 44.6855 70.8445 45.0472C70.621 45.4089 70.3011 45.7012 69.9208 45.8913C69.5405 46.0815 69.1148 46.162 68.6913 46.1238C68.2678 46.0856 67.8633 45.9302 67.5232 45.6751L61.7388 41.3368L55.9544 45.6751ZM4.16805 62.6028L4.16935 62.5999C4.3498 62.1953 4.64342 61.8516 5.0148 61.6101C5.38616 61.3686 5.81946 61.2396 6.26245 61.2388H6.2634H73.3707C80.0623 61.2388 85.5027 66.6791 85.5027 73.3707C85.5027 80.0623 80.0623 85.5027 73.3707 85.5027H6.2634C5.35832 85.5027 4.5354 84.9652 4.16908 84.141L4.16805 84.1386C3.80213 83.3039 3.96317 82.3435 4.56718 81.6711L4.56918 81.6689C8.86963 76.9384 8.86963 69.8031 4.56917 65.0726L4.56718 65.0704C3.96317 64.398 3.80213 63.4376 4.16805 62.6028ZM63.1125 36.6433L66.6074 39.2645V19.2901H56.8702V39.2645L60.3651 36.6433C60.7768 36.3345 61.2587 36.1854 61.7388 36.1854C62.2188 36.1854 62.7007 36.3345 63.1125 36.6433ZM73.3707 8.55293H10.595C11.7687 10.8937 12.3825 13.4796 12.3825 16.1058C12.3825 18.7321 11.7687 21.318 10.595 23.6587H52.2911V17.0006C52.2911 15.7402 53.3203 14.711 54.5807 14.711H68.8969C70.1573 14.711 71.1864 15.7402 71.1864 17.0006V23.6587H73.3707C77.5326 23.6587 80.9236 20.2677 80.9236 16.1058C80.9236 11.9439 77.5326 8.55293 73.3707 8.55293ZM12.3825 73.3707C12.3825 75.997 11.7687 78.5829 10.595 80.9236H73.3707C77.5326 80.9236 80.9236 77.5326 80.9236 73.3707C80.9236 69.2088 77.5326 65.8179 73.3707 65.8179H10.595C11.7687 68.1586 12.3825 70.7445 12.3825 73.3707Z"
          fill="#868686" stroke="#868686"/>
</svg>
