<svg xmlns="http://www.w3.org/2000/svg" width="701" height="410" fill="none" viewBox="0 0 701 410">
  <path fill="#01F401" d="M0 53C0 23.729 23.729 0 53 0h595c29.271 0 53 23.729 53 53v304c0 29.271-23.729 53-53 53H53c-29.271 0-53-23.729-53-53V53Z"/>
  <path fill="#01F401" d="M415 152c0-29.271 23.729-53 53-53h158c29.271 0 53 23.729 53 53v74c0 29.271-23.729 53-53 53H468c-29.271 0-53-23.729-53-53v-74Z"/>
  <path fill="#FF00C7" d="M333 129h17v17h-17zm-17 0h17v17h-17zm0 17h17v17h-17zm0 17h17v17h-17zm0 17h17v17h-17zm0 17h17v17h-17zm0 17h17v17h-17zm17-68h17v17h-17zm0 17h17v17h-17zm0 17h17v17h-17zm0 17h17v17h-17zm0 17h17v17h-17zm17-17h17v17h-17zm0-17h17v17h-17zm0-17h17v17h-17zm0-17h17v17h-17zm17 17h17v17h-17zm0 17h17v17h-17zm17-9h17v17h-17z"/>
  <path fill="#F99ECF" d="M299 146h17v17h-17zm0 17h17v17h-17zm0 17h17v17h-17zm0 19h17v17h-17z"/>
  <path fill="#F99ECF" d="M299 197h17v17h-17zm0 17h17v17h-17z"/>
  <path fill="#F99ECF" d="M299 229h17v17h-17z"/>
  <path fill="#F99ECF" d="M299 231h17v17h-17zm17 0h17v17h-17zm17 0h17v17h-17zm17-17h17v17h-17zm17-17h17v17h-17zm17-9h17v17h-17zm-85-59h17v17h-17z"/>
  <path fill="#E30CB4" d="M316 214h17v17h-17zm17 0h17v17h-17zm17-17h17v17h-17zm17-17h17v17h-17zm17-9h17v17h-17zm-17-8h17v17h-17zm-17-17h17v17h-17zm-17-17h17v17h-17zm-17 0h17v17h-17zm0 17h17v17h-17zm0 17h17v17h-17zm0 17h17v17h-17zm0 17h17v17h-17z"/>
  <path fill="#FFDBF7" d="M333 146h17v17h-17v-17Zm17 17h17v17h-17v-17Z"/>
</svg>
