<svg width="37" height="41" viewBox="0 0 37 41" fill="none" xmlns="http://www.w3.org/2000/svg">
<path d="M18.5753 23.9041C17.974 23.9041 17.3861 24.0969 16.8861 24.4581C16.3861 24.8194 15.9964 25.3328 15.7662 25.9336C15.5361 26.5343 15.4759 27.1954 15.5932 27.8331C15.7105 28.4708 16.0001 29.0567 16.4253 29.5164C16.8506 29.9762 17.3923 30.2894 17.9822 30.4162C18.572 30.5431 19.1833 30.478 19.7389 30.2291C20.2945 29.9803 20.7694 29.5589 21.1035 29.0182C21.4376 28.4776 21.6159 27.842 21.6159 27.1917C21.6159 26.3198 21.2955 25.4835 20.7253 24.867C20.1551 24.2504 19.3817 23.9041 18.5753 23.9041Z" fill="white"/>
<path d="M20.2646 16.7747C19.7646 17.1359 19.1767 17.3287 18.5753 17.3287C17.7689 17.3287 16.9956 16.9824 16.4253 16.3658C15.8551 15.7493 15.5348 14.913 15.5348 14.0411C15.5348 13.3908 15.7131 12.7552 16.0472 12.2146C16.3813 11.6739 16.8562 11.2525 17.4118 11.0037C17.9674 10.7548 18.5787 10.6897 19.1685 10.8166C19.7583 10.9434 20.3001 11.2566 20.7253 11.7164C21.1506 12.1761 21.4401 12.7619 21.5575 13.3997C21.6748 14.0374 21.6146 14.6985 21.3844 15.2992C21.1543 15.9 20.7646 16.4134 20.2646 16.7747Z" fill="white"/>
</svg>
