<svg width="35" height="35" viewBox="0 0 35 35" fill="none" xmlns="http://www.w3.org/2000/svg">
<path d="M32.4009 11.6866C32.2672 11.6866 32.1246 11.6467 31.9998 11.577L29.5486 10.143L27.0973 11.577C26.8032 11.7463 26.4556 11.7165 26.1882 11.5073C25.9207 11.2882 25.787 10.9297 25.8405 10.5612L26.304 7.51387L24.3252 5.35282C24.0935 5.09389 24.0043 4.71546 24.1024 4.36691C24.2004 4.01835 24.4767 3.75942 24.7976 3.70963L27.5341 3.26149L28.7553 0.492958C29.0494 -0.164319 30.0121 -0.164319 30.3062 0.492958L31.5274 3.26149L34.2639 3.70963C34.5937 3.75942 34.8611 4.01835 34.9591 4.36691C35.0572 4.71546 34.977 5.10385 34.7363 5.35282L32.7575 7.51387L33.221 10.5612C33.2745 10.9198 33.1408 11.2882 32.8734 11.5073C32.7664 11.6268 32.5881 11.6866 32.4009 11.6866ZM29.5575 8.08152C29.6912 8.08152 29.8338 8.12135 29.9586 8.19106L31.26 8.95789L31.0104 7.34457C30.9658 7.03585 31.055 6.70721 31.26 6.48812L32.3118 5.34286L30.8589 5.10385C30.5736 5.05406 30.333 4.86484 30.2082 4.57604L29.5575 3.10215L28.9068 4.57604C28.782 4.86484 28.5413 5.05406 28.2561 5.10385L26.8032 5.34286L27.855 6.48812C28.06 6.70721 28.1491 7.02589 28.1046 7.34457L27.855 8.95789L29.1564 8.19106C29.2812 8.12135 29.4149 8.08152 29.5575 8.08152ZM7.15761 35C6.67628 35 6.29299 34.5718 6.29299 34.034V28.0587H3.09301V34.034C3.09301 34.5718 2.70972 35 2.22839 35C1.74705 35 1.36377 34.5718 1.36377 34.034V27.1027C1.36377 26.5649 1.74705 26.1367 2.22839 26.1367H7.15761C7.63895 26.1367 8.02223 26.5649 8.02223 27.1027V34.034C8.01332 34.5618 7.63003 35 7.15761 35ZM15.4383 35C14.957 35 14.5737 34.5718 14.5737 34.034V23.3881H11.3737V34.034C11.3737 34.5718 10.9905 35 10.5091 35C10.0278 35 9.64451 34.5718 9.64451 34.034V22.4221C9.64451 21.8843 10.0278 21.4561 10.5091 21.4561H15.4383C15.9197 21.4561 16.303 21.8843 16.303 22.4221V34.034C16.303 34.5618 15.9197 35 15.4383 35ZM23.728 35C23.2467 35 22.8634 34.5718 22.8634 34.034V18.7174H19.6634V34.034C19.6634 34.5718 19.2801 35 18.7988 35C18.3174 35 17.9342 34.5718 17.9342 34.034V17.7515C17.9342 17.2137 18.3174 16.7855 18.7988 16.7855H23.728C24.2093 16.7855 24.5926 17.2137 24.5926 17.7515V34.034C24.5926 34.5618 24.2093 35 23.728 35ZM32.0177 35C31.5363 35 31.153 34.5718 31.153 34.034V14.714H27.953V34.034C27.953 34.5718 27.5698 35 27.0884 35C26.6071 35 26.2238 34.5718 26.2238 34.034V13.7381C26.2238 13.2003 26.6071 12.7721 27.0884 12.7721H32.0177C32.499 12.7721 32.8823 13.2003 32.8823 13.7381V34.034C32.8823 34.5618 32.499 35 32.0177 35Z" fill="#868686"/>
<path d="M33.3814 35H0.86462C0.383285 35 0 34.5718 0 34.034C0 33.4962 0.383285 33.068 0.86462 33.068H33.3814C33.8628 33.068 34.2461 33.4962 34.2461 34.034C34.2461 34.5618 33.8539 35 33.3814 35Z" fill="#868686"/>
</svg>
