<svg width="178" height="67" viewBox="0 0 178 67" fill="none" xmlns="http://www.w3.org/2000/svg">
<rect x="47.7892" y="52.9585" width="6.82703" height="6.61982" fill="white"/>
<rect x="54.6162" y="52.9585" width="6.82703" height="6.61982" fill="white"/>
<rect x="61.4433" y="52.9585" width="6.82703" height="6.61982" fill="white"/>
<rect x="68.2703" y="52.9585" width="6.82703" height="6.61982" fill="white"/>
<rect x="75.0974" y="52.9585" width="6.82703" height="6.61982" fill="white"/>
<rect x="81.9244" y="52.9585" width="6.82703" height="6.61982" fill="white"/>
<rect x="88.7514" y="52.9585" width="6.82703" height="6.61982" fill="white"/>
<rect x="95.5784" y="52.9585" width="6.82703" height="6.61982" fill="white"/>
<rect x="102.405" y="52.9585" width="6.82703" height="6.61982" fill="white"/>
<rect x="109.233" y="52.9585" width="6.82703" height="6.61982" fill="white"/>
<rect x="116.06" y="52.9585" width="6.82703" height="6.61982" fill="white"/>
<rect x="122.887" y="52.9585" width="6.82703" height="6.61982" fill="white"/>
<rect x="129.714" y="52.9585" width="6.82703" height="6.61982" fill="white"/>
<rect x="136.541" y="52.9585" width="6.82703" height="6.61982" fill="white"/>
<rect x="143.368" y="52.9585" width="6.82703" height="6.61982" fill="white"/>
<rect x="150.195" y="52.9585" width="6.82703" height="6.61982" fill="white"/>
<rect x="157.022" y="52.9585" width="6.82703" height="6.61982" fill="white"/>
<rect x="163.849" y="46.3389" width="6.82703" height="6.61982" fill="white"/>
<rect x="170.676" y="39.719" width="6.82703" height="6.61982" fill="white"/>
<rect x="170.676" y="33.0991" width="6.82703" height="6.61982" fill="white"/>
<rect x="170.676" y="26.4792" width="6.82703" height="6.61982" fill="white"/>
<rect x="170.676" y="19.8594" width="6.82703" height="6.61982" fill="white"/>
<rect x="170.676" y="13.2397" width="6.82703" height="6.61982" fill="white"/>
<rect x="163.849" y="6.61987" width="6.82703" height="6.61982" fill="white"/>
<rect x="6.82703" y="13.2397" width="6.82703" height="6.61982" fill="white"/>
<path d="M6.82703 19.8594H13.6541V26.4792H6.82703V19.8594Z" fill="white"/>
<path d="M6.82703 26.4792H13.6541V33.099H6.82703V26.4792Z" fill="white"/>
<path d="M6.82703 33.099H13.6541V39.7188H6.82703V33.099Z" fill="white"/>
<path d="M6.82703 39.7188H13.6541V46.3387H6.82703V39.7188Z" fill="white"/>
<rect x="13.6541" y="6.61987" width="6.82703" height="6.61982" fill="white"/>
<path d="M20.4811 0H27.3081V6.61982H20.4811V0Z" fill="white"/>
<rect x="27.3081" width="6.82703" height="6.61982" fill="white"/>
<rect x="27.3081" y="52.9585" width="6.82703" height="6.61982" fill="white"/>
<rect x="34.1352" y="52.9585" width="6.82703" height="6.61982" fill="white"/>
<rect x="20.4811" y="52.9585" width="6.82703" height="6.61982" fill="white"/>
<rect x="13.6541" y="46.3389" width="6.82703" height="6.61982" fill="white"/>
<rect x="40.9622" y="52.9585" width="6.82703" height="6.61982" fill="white"/>
<rect x="47.7892" width="6.82703" height="6.61982" fill="white"/>
<rect x="54.6162" width="6.82703" height="6.61982" fill="white"/>
<rect x="61.4433" width="6.82703" height="6.61982" fill="white"/>
<rect x="68.2703" width="6.82703" height="6.61982" fill="white"/>
<rect x="75.0974" width="6.82703" height="6.61982" fill="white"/>
<rect x="81.9244" width="6.82703" height="6.61982" fill="white"/>
<rect x="88.7514" width="6.82703" height="6.61982" fill="white"/>
<rect x="95.5784" width="6.82703" height="6.61982" fill="white"/>
<rect x="102.405" width="6.82703" height="6.61982" fill="white"/>
<rect x="109.233" width="6.82703" height="6.61982" fill="white"/>
<rect x="116.06" width="6.82703" height="6.61982" fill="white"/>
<rect x="122.887" width="6.82703" height="6.61982" fill="white"/>
<rect x="129.714" width="6.82703" height="6.61982" fill="white"/>
<rect x="136.541" width="6.82703" height="6.61982" fill="white"/>
<rect x="143.368" width="6.82703" height="6.61982" fill="white"/>
<rect x="150.195" width="6.82703" height="6.61982" fill="white"/>
<rect x="157.022" width="6.82703" height="6.61982" fill="white"/>
<rect x="40.9622" width="6.82703" height="6.61982" fill="white"/>
<rect x="34.1352" width="6.82703" height="6.61982" fill="white"/>
<rect x="34.1352" y="19.8594" width="6.82703" height="6.61982" fill="white"/>
<rect x="40.9622" y="19.8594" width="6.82703" height="6.61982" fill="white"/>
<rect x="40.9622" y="13.2397" width="6.82703" height="6.61982" fill="white"/>
<rect x="34.1352" y="13.2397" width="6.82703" height="6.61982" fill="white"/>
<rect x="88.7514" y="19.8594" width="6.82703" height="6.61982" fill="white"/>
<rect x="88.7514" y="26.4792" width="6.82703" height="6.61982" fill="white"/>
<rect x="88.7514" y="39.719" width="6.82703" height="6.61982" fill="white"/>
<rect x="20.4811" y="6.61987" width="6.82703" height="6.61982" fill="white"/>
<rect x="20.4811" y="46.3389" width="6.82703" height="6.61982" fill="white"/>
<rect x="20.4811" y="39.719" width="6.82703" height="6.61982" fill="white"/>
<rect x="20.4811" y="33.0991" width="6.82703" height="6.61982" fill="white"/>
<rect x="27.3081" y="33.0991" width="6.82703" height="6.61982" fill="white"/>
<rect x="20.4811" y="26.4792" width="6.82703" height="6.61982" fill="white"/>
<rect x="20.4811" y="19.8594" width="6.82703" height="6.61982" fill="white"/>
<rect x="20.4811" y="13.2397" width="6.82703" height="6.61982" fill="white"/>
<rect x="13.6541" y="39.719" width="6.82703" height="6.61982" fill="white"/>
<rect x="13.6541" y="33.0991" width="6.82703" height="6.61982" fill="white"/>
<rect x="13.6541" y="26.4792" width="6.82703" height="6.61982" fill="white"/>
<rect x="13.6541" y="19.8594" width="6.82703" height="6.61982" fill="white"/>
<rect x="27.3081" y="13.2397" width="6.82703" height="6.61982" fill="white"/>
<rect x="27.3081" y="19.8594" width="6.82703" height="6.61982" fill="white"/>
<rect x="27.3081" y="26.4792" width="6.82703" height="6.61982" fill="white"/>
<rect x="34.1352" y="26.4792" width="6.82703" height="6.61982" fill="white"/>
<rect x="40.9622" y="26.4792" width="6.82703" height="6.61982" fill="white"/>
<rect x="40.9622" y="33.0991" width="6.82703" height="6.61982" fill="white"/>
<rect x="40.9622" y="39.719" width="6.82703" height="6.61982" fill="white"/>
<rect x="34.1352" y="39.719" width="6.82703" height="6.61982" fill="white"/>
<rect x="27.3081" y="39.719" width="6.82703" height="6.61982" fill="white"/>
<rect x="13.6541" y="13.2397" width="6.82703" height="6.61982" fill="white"/>
<rect x="157.022" y="39.719" width="6.82703" height="6.61982" fill="white"/>
<rect x="157.022" y="33.0991" width="6.82703" height="6.61982" fill="white"/>
<rect x="157.022" y="26.4792" width="6.82703" height="6.61982" fill="white"/>
<rect x="157.022" y="19.8594" width="6.82703" height="6.61982" fill="white"/>
<rect x="150.195" y="39.719" width="6.82703" height="6.61982" fill="white"/>
<rect x="150.195" y="33.0991" width="6.82703" height="6.61982" fill="white"/>
<rect x="143.368" y="26.4792" width="6.82703" height="6.61982" fill="white"/>
<rect x="143.368" y="33.0991" width="6.82703" height="6.61982" fill="white"/>
<rect x="150.195" y="26.4792" width="6.82703" height="6.61982" fill="white"/>
<rect x="150.195" y="13.2397" width="6.82703" height="6.61982" fill="white"/>
<rect x="150.195" y="19.8594" width="6.82703" height="6.61982" fill="white"/>
<rect x="136.541" y="39.719" width="6.82703" height="6.61982" fill="white"/>
<rect x="136.541" y="33.0991" width="6.82703" height="6.61982" fill="white"/>
<rect x="143.368" y="39.719" width="6.82703" height="6.61982" fill="white"/>
<rect x="136.541" y="26.4792" width="6.82703" height="6.61982" fill="white"/>
<rect x="136.541" y="19.8594" width="6.82703" height="6.61982" fill="white"/>
<rect x="143.368" y="13.2397" width="6.82703" height="6.61982" fill="white"/>
<rect x="143.368" y="19.8594" width="6.82703" height="6.61982" fill="white"/>
<rect x="68.2703" y="39.719" width="6.82703" height="6.61982" fill="white"/>
<rect x="61.4433" y="39.719" width="6.82703" height="6.61982" fill="white"/>
<rect x="68.2703" y="33.0991" width="6.82703" height="6.61982" fill="white"/>
<rect x="61.4433" y="33.0991" width="6.82703" height="6.61982" fill="white"/>
<rect x="68.2703" y="26.4792" width="6.82703" height="6.61982" fill="white"/>
<rect x="61.4433" y="26.4792" width="6.82703" height="6.61982" fill="white"/>
<rect x="68.2703" y="19.8594" width="6.82703" height="6.61982" fill="white"/>
<rect x="61.4433" y="19.8594" width="6.82703" height="6.61982" fill="white"/>
<rect x="68.2703" y="13.2397" width="6.82703" height="6.61982" fill="white"/>
<rect x="54.6162" y="39.719" width="6.82703" height="6.61982" fill="white"/>
<rect x="54.6162" y="33.0991" width="6.82703" height="6.61982" fill="white"/>
<rect x="54.6162" y="26.4792" width="6.82703" height="6.61982" fill="white"/>
<rect x="54.6162" y="19.8594" width="6.82703" height="6.61982" fill="white"/>
<rect x="61.4433" y="13.2397" width="6.82703" height="6.61982" fill="white"/>
<rect x="54.6162" y="13.2397" width="6.82703" height="6.61982" fill="white"/>
<rect x="157.022" y="13.2397" width="6.82703" height="6.61982" fill="white"/>
<rect x="47.7892" y="39.719" width="6.82703" height="6.61982" fill="white"/>
<rect x="47.7892" y="33.0991" width="6.82703" height="6.61982" fill="white"/>
<rect x="47.7892" y="26.4792" width="6.82703" height="6.61982" fill="white"/>
<rect x="47.7892" y="19.8594" width="6.82703" height="6.61982" fill="white"/>
<rect x="47.7892" y="13.2397" width="6.82703" height="6.61982" fill="white"/>
<rect x="75.0974" y="39.719" width="6.82703" height="6.61982" fill="white"/>
<rect x="81.9244" y="39.719" width="6.82703" height="6.61982" fill="white"/>
<rect x="75.0974" y="33.0991" width="6.82703" height="6.61982" fill="white"/>
<rect x="81.9244" y="33.0991" width="6.82703" height="6.61982" fill="white"/>
<rect x="75.0974" y="26.4792" width="6.82703" height="6.61982" fill="white"/>
<rect x="81.9244" y="26.4792" width="6.82703" height="6.61982" fill="white"/>
<rect x="75.0974" y="19.8594" width="6.82703" height="6.61982" fill="white"/>
<rect x="81.9244" y="19.8594" width="6.82703" height="6.61982" fill="white"/>
<rect x="75.0974" y="13.2397" width="6.82703" height="6.61982" fill="white"/>
<rect x="88.7514" y="13.2397" width="6.82703" height="6.61982" fill="white"/>
<rect x="95.5784" y="13.2397" width="6.82703" height="6.61982" fill="white"/>
<rect x="95.5784" y="19.8594" width="6.82703" height="6.61982" fill="white"/>
<rect x="95.5784" y="26.4792" width="6.82703" height="6.61982" fill="white"/>
<rect x="95.5784" y="33.0991" width="6.82703" height="6.61982" fill="white"/>
<rect x="122.887" y="39.719" width="6.82703" height="6.61982" fill="white"/>
<rect x="95.5784" y="39.719" width="6.82703" height="6.61982" fill="white"/>
<rect x="88.7514" y="33.0991" width="6.82703" height="6.61982" fill="white"/>
<rect x="81.9244" y="13.2397" width="6.82703" height="6.61982" fill="white"/>
<rect x="102.405" y="39.719" width="6.82703" height="6.61982" fill="white"/>
<rect x="102.405" y="33.0991" width="6.82703" height="6.61982" fill="white"/>
<rect x="102.405" y="26.4792" width="6.82703" height="6.61982" fill="white"/>
<rect x="102.405" y="19.8594" width="6.82703" height="6.61982" fill="white"/>
<rect x="109.233" y="19.8594" width="6.82703" height="6.61982" fill="white"/>
<rect x="109.233" y="26.4792" width="6.82703" height="6.61982" fill="white"/>
<rect x="109.233" y="33.0991" width="6.82703" height="6.61982" fill="white"/>
<rect x="109.233" y="39.719" width="6.82703" height="6.61982" fill="white"/>
<rect x="109.233" y="13.2397" width="6.82703" height="6.61982" fill="white"/>
<rect x="116.06" y="13.2397" width="6.82703" height="6.61982" fill="white"/>
<rect x="122.887" y="13.2397" width="6.82703" height="6.61982" fill="white"/>
<rect x="122.887" y="19.8594" width="6.82703" height="6.61982" fill="white"/>
<rect x="122.887" y="33.0991" width="6.82703" height="6.61982" fill="white"/>
<rect x="136.541" y="13.2397" width="6.82703" height="6.61982" fill="white"/>
<rect x="116.06" y="26.4792" width="6.82703" height="6.61982" fill="white"/>
<rect x="102.405" y="13.2397" width="6.82703" height="6.61982" fill="white"/>
<rect x="116.06" y="19.8594" width="6.82703" height="6.61982" fill="white"/>
<rect x="116.06" y="33.0991" width="6.82703" height="6.61982" fill="white"/>
<rect x="116.06" y="39.719" width="6.82703" height="6.61982" fill="white"/>
<rect x="129.714" y="39.719" width="6.82703" height="6.61982" fill="white"/>
<rect x="122.887" y="26.4792" width="6.82703" height="6.61982" fill="white"/>
<rect x="129.714" y="26.4792" width="6.82703" height="6.61982" fill="white"/>
<rect x="129.714" y="33.0991" width="6.82703" height="6.61982" fill="white"/>
<rect x="129.714" y="19.8594" width="6.82703" height="6.61982" fill="white"/>
<rect x="129.714" y="13.2397" width="6.82703" height="6.61982" fill="white"/>
<rect x="163.849" y="39.719" width="6.82703" height="6.61982" fill="white"/>
<rect x="163.849" y="33.0991" width="6.82703" height="6.61982" fill="white"/>
<rect x="163.849" y="26.4792" width="6.82703" height="6.61982" fill="white"/>
<rect x="163.849" y="19.8594" width="6.82703" height="6.61982" fill="white"/>
<rect x="163.849" y="13.2397" width="6.82703" height="6.61982" fill="white"/>
<rect x="34.1352" y="33.0991" width="6.82703" height="6.61982" fill="white"/>
<rect x="27.3081" y="6.61987" width="6.82703" height="6.61982" fill="white"/>
<rect x="34.1352" y="6.61987" width="6.82703" height="6.61982" fill="white"/>
<rect x="40.9622" y="6.61987" width="6.82703" height="6.61982" fill="white"/>
<rect x="47.7892" y="6.61987" width="6.82703" height="6.61982" fill="white"/>
<rect x="54.6162" y="6.61987" width="6.82703" height="6.61982" fill="white"/>
<rect x="61.4433" y="6.61987" width="6.82703" height="6.61982" fill="white"/>
<rect x="68.2703" y="6.61987" width="6.82703" height="6.61982" fill="white"/>
<rect x="75.0974" y="6.61987" width="6.82703" height="6.61982" fill="white"/>
<rect x="81.9244" y="6.61987" width="6.82703" height="6.61982" fill="white"/>
<rect x="88.7514" y="6.61987" width="6.82703" height="6.61982" fill="white"/>
<rect x="95.5784" y="6.61987" width="6.82703" height="6.61982" fill="white"/>
<rect x="95.5784" y="6.61987" width="6.82703" height="6.61982" fill="white"/>
<rect x="102.405" y="6.61987" width="6.82703" height="6.61982" fill="white"/>
<rect x="109.233" y="6.61987" width="6.82703" height="6.61982" fill="white"/>
<rect x="116.06" y="6.61987" width="6.82703" height="6.61982" fill="white"/>
<rect x="122.887" y="6.61987" width="6.82703" height="6.61982" fill="white"/>
<rect x="129.714" y="6.61987" width="6.82703" height="6.61982" fill="white"/>
<rect x="136.541" y="6.61987" width="6.82703" height="6.61982" fill="white"/>
<rect x="143.368" y="6.61987" width="6.82703" height="6.61982" fill="white"/>
<rect x="150.195" y="6.61987" width="6.82703" height="6.61982" fill="white"/>
<rect x="157.022" y="6.61987" width="6.82703" height="6.61982" fill="white"/>
<rect x="27.3081" y="46.3389" width="6.82703" height="6.61982" fill="white"/>
<rect x="34.1352" y="46.3389" width="6.82703" height="6.61982" fill="white"/>
<rect x="40.9622" y="46.3389" width="6.82703" height="6.61982" fill="white"/>
<rect x="47.7892" y="46.3389" width="6.82703" height="6.61982" fill="white"/>
<rect x="54.6162" y="46.3389" width="6.82703" height="6.61982" fill="white"/>
<rect x="61.4433" y="46.3389" width="6.82703" height="6.61982" fill="white"/>
<rect x="68.2703" y="46.3389" width="6.82703" height="6.61982" fill="white"/>
<rect x="75.0974" y="46.3389" width="6.82703" height="6.61982" fill="white"/>
<rect x="81.9244" y="46.3389" width="6.82703" height="6.61982" fill="white"/>
<rect x="88.7514" y="46.3389" width="6.82703" height="6.61982" fill="white"/>
<rect x="95.5784" y="46.3389" width="6.82703" height="6.61982" fill="white"/>
<rect x="95.5784" y="46.3389" width="6.82703" height="6.61982" fill="white"/>
<rect x="102.405" y="46.3389" width="6.82703" height="6.61982" fill="white"/>
<rect x="109.233" y="46.3389" width="6.82703" height="6.61982" fill="white"/>
<rect x="116.06" y="46.3389" width="6.82703" height="6.61982" fill="white"/>
<rect x="122.887" y="46.3389" width="6.82703" height="6.61982" fill="white"/>
<rect x="129.714" y="46.3389" width="6.82703" height="6.61982" fill="white"/>
<rect x="136.541" y="46.3389" width="6.82703" height="6.61982" fill="white"/>
<rect x="143.368" y="46.3389" width="6.82703" height="6.61982" fill="white"/>
<rect x="150.195" y="46.3389" width="6.82703" height="6.61982" fill="white"/>
<rect x="157.022" y="46.3389" width="6.82703" height="6.61982" fill="white"/>
<rect x="6.82703" y="7.06104" width="6.82703" height="6.61982" fill="white"/>
<rect y="13.6809" width="6.82703" height="6.61982" fill="white"/>
<rect y="20.3008" width="6.82703" height="6.61982" fill="white"/>
<rect y="26.9207" width="6.82703" height="6.61982" fill="white"/>
<rect y="33.5405" width="6.82703" height="6.61982" fill="white"/>
<rect y="39.719" width="6.82703" height="6.61982" fill="white"/>
<rect x="6.82703" y="46.3389" width="6.82703" height="6.61982" fill="white"/>
<rect x="13.6541" y="52.9585" width="6.82703" height="6.61982" fill="white"/>
<rect x="20.4811" y="59.5784" width="6.82703" height="6.61982" fill="white"/>
<rect x="13.6541" y="59.5784" width="6.82703" height="6.61982" fill="white"/>
<rect x="6.82703" y="52.9585" width="6.82703" height="6.61982" fill="white"/>
<rect y="46.3389" width="6.82703" height="6.61982" fill="white"/>
<rect x="27.3081" y="59.5784" width="6.82703" height="6.61982" fill="white"/>
<rect x="34.1352" y="59.5784" width="6.82703" height="6.61982" fill="white"/>
<rect x="40.9622" y="59.5784" width="6.82703" height="6.61982" fill="white"/>
<rect x="47.7892" y="59.5784" width="6.82703" height="6.61982" fill="white"/>
<rect x="54.6162" y="59.5784" width="6.82703" height="6.61982" fill="white"/>
<rect x="61.4433" y="59.5784" width="6.82703" height="6.61982" fill="white"/>
<rect x="68.2703" y="59.5784" width="6.82703" height="6.61982" fill="white"/>
<rect x="75.0974" y="59.5784" width="6.82703" height="6.61982" fill="white"/>
<rect x="81.9244" y="59.5784" width="6.82703" height="6.61982" fill="white"/>
<rect x="88.7514" y="59.5784" width="6.82703" height="6.61982" fill="white"/>
<rect x="95.5784" y="59.5784" width="6.82703" height="6.61982" fill="white"/>
<rect x="102.405" y="59.5784" width="6.82703" height="6.61982" fill="white"/>
<rect x="109.233" y="59.5784" width="6.82703" height="6.61982" fill="white"/>
<rect x="116.06" y="59.5784" width="6.82703" height="6.61982" fill="white"/>
<rect x="122.887" y="59.5784" width="6.82703" height="6.61982" fill="white"/>
<rect x="129.714" y="59.5784" width="6.82703" height="6.61982" fill="white"/>
<rect x="136.541" y="59.5784" width="6.82703" height="6.61982" fill="white"/>
<rect x="143.368" y="59.5784" width="6.82703" height="6.61982" fill="white"/>
<rect x="150.195" y="59.5784" width="6.82703" height="6.61982" fill="white"/>
<rect x="157.022" y="59.5784" width="6.82703" height="6.61982" fill="white"/>
<rect x="163.849" y="52.9585" width="6.82703" height="6.61982" fill="white"/>
<rect x="170.676" y="46.3389" width="6.82703" height="6.61982" fill="white"/>
<rect x="13.6541" y="0.441406" width="6.82703" height="6.61982" fill="white"/>
<path d="M28.9605 48V13.0909H36.3412V41.9148H51.3071V48H28.9605ZM56.1949 48V13.0909H79.7176V19.1761H63.5756V27.4943H78.5074V33.5795H63.5756V41.9148H79.7858V48H56.1949ZM108.733 24.375C108.495 23.5455 108.159 22.8125 107.728 22.1761C107.296 21.5284 106.767 20.983 106.142 20.5398C105.529 20.0852 104.824 19.7386 104.029 19.5C103.245 19.2614 102.375 19.142 101.421 19.142C99.6367 19.142 98.0685 19.5852 96.7162 20.4716C95.3753 21.358 94.3298 22.6477 93.5798 24.3409C92.8298 26.0227 92.4548 28.0795 92.4548 30.5114C92.4548 32.9432 92.8242 35.0114 93.5628 36.7159C94.3014 38.4205 95.3469 39.7216 96.6992 40.6193C98.0514 41.5057 99.648 41.9489 101.489 41.9489C103.159 41.9489 104.586 41.6534 105.767 41.0625C106.961 40.4602 107.87 39.6136 108.495 38.5227C109.131 37.4318 109.449 36.142 109.449 34.6534L110.949 34.875H101.949V29.3182H116.557V33.7159C116.557 36.7841 115.909 39.4205 114.614 41.625C113.318 43.8182 111.534 45.5114 109.262 46.7045C106.989 47.8864 104.387 48.4773 101.455 48.4773C98.1821 48.4773 95.3071 47.7557 92.8298 46.3125C90.3526 44.858 88.4208 42.7955 87.0344 40.125C85.6594 37.4432 84.9719 34.2614 84.9719 30.5795C84.9719 27.75 85.381 25.2273 86.1992 23.0114C87.0287 20.7841 88.1878 18.8977 89.6764 17.3523C91.1651 15.8068 92.898 14.6307 94.8753 13.8239C96.8526 13.017 98.9946 12.6136 101.301 12.6136C103.279 12.6136 105.12 12.9034 106.824 13.483C108.529 14.0511 110.04 14.858 111.358 15.9034C112.688 16.9489 113.773 18.1932 114.614 19.6364C115.455 21.0682 115.995 22.6477 116.233 24.375H108.733ZM154.181 30.5455C154.181 34.3523 153.459 37.5909 152.016 40.2614C150.584 42.9318 148.63 44.9716 146.152 46.3807C143.686 47.7784 140.914 48.4773 137.834 48.4773C134.732 48.4773 131.948 47.7727 129.482 46.3636C127.016 44.9545 125.067 42.9148 123.635 40.2443C122.203 37.5739 121.488 34.3409 121.488 30.5455C121.488 26.7386 122.203 23.5 123.635 20.8295C125.067 18.1591 127.016 16.125 129.482 14.7273C131.948 13.3182 134.732 12.6136 137.834 12.6136C140.914 12.6136 143.686 13.3182 146.152 14.7273C148.63 16.125 150.584 18.1591 152.016 20.8295C153.459 23.5 154.181 26.7386 154.181 30.5455ZM146.698 30.5455C146.698 28.0795 146.328 26 145.59 24.3068C144.863 22.6136 143.834 21.3295 142.505 20.4545C141.175 19.5795 139.618 19.142 137.834 19.142C136.05 19.142 134.493 19.5795 133.164 20.4545C131.834 21.3295 130.8 22.6136 130.061 24.3068C129.334 26 128.97 28.0795 128.97 30.5455C128.97 33.0114 129.334 35.0909 130.061 36.7841C130.8 38.4773 131.834 39.7614 133.164 40.6364C134.493 41.5114 136.05 41.9489 137.834 41.9489C139.618 41.9489 141.175 41.5114 142.505 40.6364C143.834 39.7614 144.863 38.4773 145.59 36.7841C146.328 35.0909 146.698 33.0114 146.698 30.5455Z" fill="#01F401"/>
</svg>
