<svg xmlns="http://www.w3.org/2000/svg" width="395" height="260" fill="none" viewBox="0 0 395 260">
  <path fill="#E30CB4" d="M179.31 107.586h8.966v8.966h-8.966z"/>
  <path fill="#E30CB4" d="M170.345 107.586h8.966v8.966h-8.966z"/>
  <path fill="#E30CB4" d="M170.345 107.586h8.966v8.966h-8.966zm-8.966-8.965h8.966v8.966h-8.966z"/>
  <path fill="#E30CB4" d="M152.414 98.621h8.966v8.966h-8.966zm0-8.966h8.966v8.966h-8.966z"/>
  <path fill="#E30CB4" d="M143.448 80.69h8.966v8.966h-8.966zm0-8.966h8.966v8.966h-8.966zm17.931-62.758h8.966v8.966h-8.966zm-17.931 17.931h8.966v8.966h-8.966z"/>
  <path fill="#E30CB4" d="M152.414 17.931h8.966v8.966h-8.966z"/>
  <path fill="#E30CB4" d="M152.414 8.966h8.966v8.966h-8.966zm-8.966 35.862h8.966v8.966h-8.966zm0-8.966h8.966v8.966h-8.966z"/>
  <path fill="#E30CB4" d="M143.448 53.793h8.966v8.966h-8.966zm0 8.966h8.966v8.966h-8.966zm44.828 44.827h8.966v8.966h-8.966z"/>
  <path fill="#E30CB4" d="M197.241 107.586h8.966v8.966h-8.966zM179.31 0h8.966v8.966h-8.966zm8.966 0h8.966v8.966h-8.966z"/>
  <path fill="#E30CB4" d="M197.241 0h8.966v8.966h-8.966z"/>
  <path fill="#E30CB4" d="M206.207 0h8.966v8.966h-8.966z"/>
  <path fill="#E30CB4" d="M215.172 0h8.966v8.966h-8.966zm35.863 80.69h8.966v8.966h-8.966z"/>
  <path fill="#E30CB4" d="M251.035 89.655h8.966v8.966h-8.966zm-8.966 8.966h8.966v8.966h-8.966z"/>
  <path fill="#E30CB4" d="M233.103 107.586h8.966v8.966h-8.966z"/>
  <path fill="#E30CB4" d="M224.138 107.586h8.966v8.966h-8.966zm-8.966 0h8.966v8.966h-8.966z"/>
  <path fill="#E30CB4" d="M206.207 107.586h8.966v8.966h-8.966zm44.828-35.862h8.966v8.966h-8.966z"/>
  <path fill="#E30CB4" d="M251.035 62.759h8.966v8.966h-8.966zm0-8.966h8.966v8.966h-8.966z"/>
  <path fill="#E30CB4" d="M251.035 44.828h8.966v8.966h-8.966zm0-8.966h8.966v8.966h-8.966z"/>
  <path fill="#E30CB4" d="M251.035 26.897h8.966v8.966h-8.966zm0-8.966h8.966v8.966h-8.966z"/>
  <path fill="#E30CB4" d="M242.069 8.966h8.966v8.966h-8.966zM170.345 0h8.966v8.966h-8.966zm62.758 0h8.966v8.966h-8.966z"/>
  <path fill="#E30CB4" d="M224.138 0h8.966v8.966h-8.966z"/>
  <path fill="#FF5CDB" d="M242.069 80.69h8.966v8.966h-8.966z"/>
  <path fill="#FF5CDB" d="M233.103 89.655h8.966v8.966h-8.966z"/>
  <path fill="#FF5CDB" d="M224.138 89.655h8.966v8.966h-8.966zm-8.966 0h8.966v8.966h-8.966z"/>
  <path fill="#FF5CDB" d="M206.207 89.655h8.966v8.966h-8.966z"/>
  <path fill="#FF5CDB" d="M197.241 89.655h8.966v8.966h-8.966z"/>
  <path fill="#FF5CDB" d="M188.276 89.655h8.966v8.966h-8.966zm-8.966 0h8.966v8.966h-8.966z"/>
  <path fill="#FF5CDB" d="M170.345 80.69h8.966v8.966h-8.966zm-8.966-8.966h8.966v8.966h-8.966z"/>
  <path fill="#FF5CDB" d="M161.379 62.759h8.966v8.966h-8.966zm0-8.966h8.966v8.966h-8.966z"/>
  <path fill="#FF5CDB" d="M161.379 44.828h8.966v8.966h-8.966zm0-8.966h8.966v8.966h-8.966v-8.966Z"/>
  <path fill="#FF5CDB" d="M161.379 26.897h8.966v8.966h-8.966zm0 62.758h8.966v8.966h-8.966z"/>
  <path fill="#FF00C7" d="M206.207 35.862h8.966v8.966h-8.966zm0 8.966h8.966v8.966h-8.966z"/>
  <path fill="#FF00C7" d="M206.207 53.793h8.966v8.966h-8.966zm0 8.966h8.966v8.966h-8.966z"/>
  <path fill="#FF00C7" d="M206.207 71.724h8.966v8.966h-8.966zm0-44.827h8.966v8.966h-8.966z"/>
  <path fill="#FF00C7" d="M197.241 26.897h8.966v8.966h-8.966z"/>
  <path fill="#FF00C7" d="M197.241 35.862h8.966v8.966h-8.966zm0 8.966h8.966v8.966h-8.966z"/>
  <path fill="#FF00C7" d="M188.276 44.828h8.966v8.966h-8.966z"/>
  <path fill="#FF00C7" d="M188.276 53.793h8.966v8.966h-8.966zm10.759 0h8.966v8.966h-8.966z"/>
  <path fill="#FF00C7" d="M194.851 53.793h8.966v8.966h-8.966zm11.356 26.897h8.966v8.966h-8.966z"/>
  <path fill="#FF00C7" d="M197.241 80.69h8.966v8.966h-8.966z"/>
  <path fill="#FF00C7" d="M188.276 80.69h8.966v8.966h-8.966zm26.896 0h8.966v8.966h-8.966zm8.966 0h8.966v8.966h-8.966z"/>
  <path fill="#FF00C7" d="M233.103 80.69h8.966v8.966h-8.966zm-53.793 0h8.966v8.966h-8.966zm26.897-71.724h8.966v8.966h-8.966z"/>
  <path fill="#FF00C7" d="M197.241 8.966h8.966v8.966h-8.966z"/>
  <path fill="#FF00C7" d="M188.276 8.966h8.966v8.966h-8.966zm26.896 0h8.966v8.966h-8.966zm8.966 0h8.966v8.966h-8.966z"/>
  <path fill="#FF00C7" d="M233.103 8.966h8.966v8.966h-8.966zm-53.793 0h8.966v8.966h-8.966z"/>
  <path fill="#FF00C7" d="M170.345 8.966h8.966v8.966h-8.966zm80.69 35.862v8.966h-8.966v-8.966zm0-8.966v8.966h-8.966v-8.966z"/>
  <path fill="#FF00C7" d="M251.035 26.897v8.966h-8.966v-8.966zm0 26.896v8.966h-8.966v-8.966z"/>
  <path fill="#FF00C7" d="M251.035 62.759v8.966h-8.966v-8.966z"/>
  <path fill="#FF00C7" d="M251.035 71.724v8.966h-8.966v-8.966zm-.001-53.794v8.966h-8.966V17.93zM179.31 44.828v8.966h-8.966v-8.966zm0-8.966v8.966h-8.966v-8.966z"/>
  <path fill="#FF00C7" d="M179.31 26.897v8.966h-8.966v-8.966zm0 26.896v8.966h-8.966v-8.966z"/>
  <path fill="#FF00C7" d="M179.31 62.759v8.966h-8.966v-8.966z"/>
  <path fill="#FF00C7" d="M179.31 71.724v8.966h-8.966v-8.966zm-8.965 8.966v8.966h-8.966V80.69zm-8.966 0v8.966h-8.966V80.69z"/>
  <path fill="#FF00C7" d="M179.31 89.655v8.966h-8.966v-8.966z"/>
  <path fill="#FF00C7" d="M179.309 98.62v8.966h-8.966V98.62zm8.966 0v8.966h-8.966V98.62zm17.931 0v8.966h-8.966V98.62z"/>
  <path fill="#FF00C7" d="M215.171 98.62v8.966h-8.966V98.62zm8.966 0v8.966h-8.966V98.62z"/>
  <path fill="#FF00C7" d="M233.102 98.62v8.966h-8.966V98.62zm8.966 0v8.966h-8.966V98.62zm8.967-8.965v8.966h-8.966v-8.966zM197.24 98.62v8.966h-8.966V98.62zm-35.861-26.896v8.966h-8.966v-8.966z"/>
  <path fill="#FF00C7" d="M161.379 62.759v8.966h-8.966v-8.966z"/>
  <path fill="#FF00C7" d="M161.379 53.793v8.966h-8.966v-8.966z"/>
  <path fill="#FF00C7" d="M161.379 44.828v8.966h-8.966v-8.966zm0-8.966v8.966h-8.966v-8.966z"/>
  <path fill="#FF00C7" d="M161.379 26.897v8.966h-8.966v-8.966zm8.965-8.967v8.966h-8.966V17.93zm17.932 26.898v8.966h-8.966v-8.966zm0-8.966v8.966h-8.966v-8.966z"/>
  <path fill="#FF00C7" d="M188.276 26.897v8.966h-8.966v-8.966zm0 26.896v8.966h-8.966v-8.966z"/>
  <path fill="#FF00C7" d="M188.276 62.759v8.966h-8.966v-8.966z"/>
  <path fill="#FF00C7" d="M188.276 71.724v8.966h-8.966v-8.966zm-.001-53.794v8.966h-8.966V17.93zm-8.966 0v8.966h-8.966V17.93zm17.932 26.898v8.966h-8.966v-8.966zm0-8.966v8.966h-8.966v-8.966z"/>
  <path fill="#FF00C7" d="M197.241 26.897v8.966h-8.966v-8.966zm0 26.896v8.966h-8.966v-8.966z"/>
  <path fill="#FF00C7" d="M197.241 62.759v8.966h-8.966v-8.966z"/>
  <path fill="#FF00C7" d="M197.241 71.724v8.966h-8.966v-8.966zm-.001-53.794v8.966h-8.966V17.93zm8.967 26.898v8.966h-8.966v-8.966zm0-8.966v8.966h-8.966v-8.966z"/>
  <path fill="#FF00C7" d="M206.207 26.897v8.966h-8.966v-8.966zm0 26.896v8.966h-8.966v-8.966z"/>
  <path fill="#FF00C7" d="M206.207 62.759v8.966h-8.966v-8.966z"/>
  <path fill="#FF00C7" d="M206.207 71.724v8.966h-8.966v-8.966zm-.001-53.794v8.966h-8.966V17.93zm17.932 26.898v8.966h-8.966v-8.966zm0-8.966v8.966h-8.966v-8.966z"/>
  <path fill="#FF00C7" d="M224.138 26.897v8.966h-8.966v-8.966zm0 26.896v8.966h-8.966v-8.966z"/>
  <path fill="#FF00C7" d="M224.138 62.759v8.966h-8.966v-8.966z"/>
  <path fill="#FF00C7" d="M224.138 71.724v8.966h-8.966v-8.966zm-.001-53.794v8.966h-8.966V17.93zm8.966 26.898v8.966h-8.966v-8.966zm0-8.966v8.966h-8.966v-8.966z"/>
  <path fill="#FF00C7" d="M233.103 26.897v8.966h-8.966v-8.966zm0 26.896v8.966h-8.966v-8.966z"/>
  <path fill="#FF00C7" d="M233.103 62.759v8.966h-8.966v-8.966z"/>
  <path fill="#FF00C7" d="M233.103 71.724v8.966h-8.966v-8.966zm-.001-53.794v8.966h-8.966V17.93zm8.967 26.898v8.966h-8.966v-8.966zm0-8.966v8.966h-8.966v-8.966z"/>
  <path fill="#FF00C7" d="M242.069 26.897v8.966h-8.966v-8.966zm0 26.896v8.966h-8.966v-8.966z"/>
  <path fill="#FF00C7" d="M242.069 62.759v8.966h-8.966v-8.966z"/>
  <path fill="#FF00C7" d="M242.069 71.724v8.966h-8.966v-8.966zm-.001-53.794v8.966h-8.966V17.93zm-53.792 17.932h8.966v8.966h-8.966zm26.896 0h8.966v8.966h-8.966zm8.966 0h8.966v8.966h-8.966z"/>
  <path fill="#FF00C7" d="M215.172 26.897h8.966v8.966h-8.966zm-8.965-8.966h8.966v8.966h-8.966z"/>
  <path fill="#F99ECF" d="M143.448 17.931h8.966v8.966h-8.966zm-8.965 8.966h8.966v8.966h-8.966z"/>
  <path fill="#F99ECF" d="M134.483 35.862h8.966v8.966h-8.966zm0 8.966h8.966v8.966h-8.966z"/>
  <path fill="#F99ECF" d="M134.483 53.793h8.966v8.966h-8.966zm0 8.966h8.966v8.966h-8.966z"/>
  <path fill="#F99ECF" d="M134.483 71.724h8.966v8.966h-8.966zm0 8.966h8.966v8.966h-8.966z"/>
  <path fill="#F99ECF" d="M143.448 89.655h8.966v8.966h-8.966zm0 8.966h8.966v8.966h-8.966z"/>
  <path fill="#F99ECF" d="M134.483 89.655h8.966v8.966h-8.966zm17.931 17.931h8.966v8.966h-8.966z"/>
  <path fill="#F99ECF" d="M143.448 107.586h8.966v8.966h-8.966zm17.931 0h8.966v8.966h-8.966zm8.966 8.966h8.966v8.966h-8.966zm-8.966 0h8.966v8.966h-8.966z"/>
  <path fill="#F99ECF" d="M179.31 116.552h8.966v8.966h-8.966zm8.966 0h8.966v8.966h-8.966z"/>
  <path fill="#F99ECF" d="M197.241 116.552h8.966v8.966h-8.966z"/>
  <path fill="#F99ECF" d="M206.207 116.552h8.966v8.966h-8.966z"/>
  <path fill="#F99ECF" d="M215.172 116.552h8.966v8.966h-8.966zm8.966 0h8.966v8.966h-8.966z"/>
  <path fill="#F99ECF" d="M233.103 116.552h8.966v8.966h-8.966zm8.966-8.966h8.966v8.966h-8.966z"/>
  <path fill="#F99ECF" d="M251.035 98.621h8.966v8.966h-8.966zM143.448 8.966h8.966v8.966h-8.966zM161.379 0h8.966v8.966h-8.966z"/>
  <path fill="#FFDBF7" d="M206.207 71.724h8.965v8.966h-8.965v-8.966Zm0-8.965h8.965v8.965h-8.965V62.76Zm0-8.966h8.965v8.965h-8.965v-8.965Z"/>
  <path fill="#FFDBF7" d="M206.207 44.828h8.965v8.965h-8.965v-8.965Zm0-8.966h8.965v8.966h-8.965v-8.966Zm0-8.965h8.965v8.965h-8.965v-8.965Zm0-8.967h8.965v8.966h-8.965v-8.965Z"/>
  <path fill="#FFDBF7" d="M197.241 26.897h8.966v8.965h-8.966v-8.965Zm0 8.965h8.966v8.966h-8.966v-8.966Zm-8.965 0h8.965v8.966h-8.965v-8.966Zm26.896 0h8.966v8.966h-8.966v-8.966Zm8.966 0h8.965v8.966h-8.965v-8.966Zm-8.966-8.965h8.966v8.965h-8.966v-8.965Z"/>
  <path fill="#E30CB4" d="M179.31 242.069h8.966v8.966h-8.966z"/>
  <path fill="#E30CB4" d="M170.345 242.069h8.966v8.966h-8.966z"/>
  <path fill="#E30CB4" d="M170.345 242.069h8.966v8.966h-8.966zm-8.966-8.966h8.966v8.966h-8.966z"/>
  <path fill="#E30CB4" d="M152.414 233.103h8.966v8.966h-8.966z"/>
  <path fill="#E30CB4" d="M152.414 224.138h8.966v8.966h-8.966zm-8.966-8.966h8.966v8.966h-8.966z"/>
  <path fill="#E30CB4" d="M143.448 206.207h8.966v8.966h-8.966zm17.931-62.759h8.966v8.966h-8.966zm-17.931 17.931h8.966v8.966h-8.966z"/>
  <path fill="#E30CB4" d="M152.414 152.414h8.966v8.966h-8.966z"/>
  <path fill="#E30CB4" d="M152.414 143.448h8.966v8.966h-8.966zm-8.966 35.862h8.966v8.966h-8.966z"/>
  <path fill="#E30CB4" d="M143.448 170.345h8.966v8.966h-8.966zm0 17.931h8.966v8.966h-8.966z"/>
  <path fill="#E30CB4" d="M143.448 197.241h8.966v8.966h-8.966zm44.828 44.828h8.966v8.966h-8.966z"/>
  <path fill="#E30CB4" d="M197.241 242.069h8.966v8.966h-8.966zM179.31 134.483h8.966v8.966h-8.966zm8.966 0h8.966v8.966h-8.966z"/>
  <path fill="#E30CB4" d="M197.241 134.483h8.966v8.966h-8.966z"/>
  <path fill="#E30CB4" d="M206.207 134.483h8.966v8.966h-8.966z"/>
  <path fill="#E30CB4" d="M215.172 134.483h8.966v8.966h-8.966zm35.863 80.689h8.966v8.966h-8.966zm0 8.966h8.966v8.966h-8.966z"/>
  <path fill="#E30CB4" d="M242.069 233.103h8.966v8.966h-8.966z"/>
  <path fill="#E30CB4" d="M233.103 242.069h8.966v8.966h-8.966z"/>
  <path fill="#E30CB4" d="M224.138 242.069h8.966v8.966h-8.966zm-8.966 0h8.966v8.966h-8.966z"/>
  <path fill="#E30CB4" d="M206.207 242.069h8.966v8.966h-8.966zm44.828-35.862h8.966v8.966h-8.966z"/>
  <path fill="#E30CB4" d="M251.035 197.241h8.966v8.966h-8.966z"/>
  <path fill="#E30CB4" d="M251.035 188.276h8.966v8.966h-8.966zm0-8.966h8.966v8.966h-8.966z"/>
  <path fill="#E30CB4" d="M251.035 170.345h8.966v8.966h-8.966zm0-8.966h8.966v8.966h-8.966z"/>
  <path fill="#E30CB4" d="M251.035 152.414h8.966v8.966h-8.966z"/>
  <path fill="#E30CB4" d="M242.069 143.448h8.966v8.966h-8.966zm-71.724-8.965h8.966v8.966h-8.966z"/>
  <path fill="#E30CB4" d="M233.103 134.483h8.966v8.966h-8.966z"/>
  <path fill="#E30CB4" d="M224.138 134.483h8.966v8.966h-8.966z"/>
  <path fill="#FF5CDB" d="M242.069 215.172h8.966v8.966h-8.966zm-8.966 8.966h8.966v8.966h-8.966z"/>
  <path fill="#FF5CDB" d="M224.138 224.138h8.966v8.966h-8.966zm-8.966 0h8.966v8.966h-8.966z"/>
  <path fill="#FF5CDB" d="M206.207 224.138h8.966v8.966h-8.966z"/>
  <path fill="#FF5CDB" d="M197.241 224.138h8.966v8.966h-8.966z"/>
  <path fill="#FF5CDB" d="M188.276 224.138h8.966v8.966h-8.966zm-8.966 0h8.966v8.966h-8.966zm-8.965-8.966h8.966v8.966h-8.966zm-8.966-8.965h8.966v8.966h-8.966z"/>
  <path fill="#FF5CDB" d="M161.379 197.241h8.966v8.966h-8.966z"/>
  <path fill="#FF5CDB" d="M161.379 188.276h8.966v8.966h-8.966zm0-8.966h8.966v8.966h-8.966zm0-8.965h8.966v8.965h-8.966v-8.965Zm0-8.966h8.966v8.966h-8.966zm0 62.759h8.966v8.966h-8.966z"/>
  <path fill="#FF00C7" d="M206.207 170.345h8.966v8.966h-8.966z"/>
  <path fill="#FF00C7" d="M206.207 179.31h8.966v8.966h-8.966zm0 8.966h8.966v8.966h-8.966z"/>
  <path fill="#FF00C7" d="M206.207 197.241h8.966v8.966h-8.966z"/>
  <path fill="#FF00C7" d="M206.207 206.207h8.966v8.966h-8.966zm0-44.828h8.966v8.966h-8.966z"/>
  <path fill="#FF00C7" d="M197.241 161.379h8.966v8.966h-8.966zm0 8.966h8.966v8.966h-8.966z"/>
  <path fill="#FF00C7" d="M197.241 179.31h8.966v8.966h-8.966z"/>
  <path fill="#FF00C7" d="M188.276 179.31h8.966v8.966h-8.966zm0 8.966h8.966v8.966h-8.966zm10.759 0h8.966v8.966h-8.966z"/>
  <path fill="#FF00C7" d="M194.851 188.276h8.966v8.966h-8.966zm11.356 26.896h8.966v8.966h-8.966z"/>
  <path fill="#FF00C7" d="M197.241 215.172h8.966v8.966h-8.966z"/>
  <path fill="#FF00C7" d="M188.276 215.172h8.966v8.966h-8.966zm26.896 0h8.966v8.966h-8.966zm8.966 0h8.966v8.966h-8.966z"/>
  <path fill="#FF00C7" d="M233.103 215.172h8.966v8.966h-8.966zm-53.793 0h8.966v8.966h-8.966zm26.897-71.724h8.966v8.966h-8.966z"/>
  <path fill="#FF00C7" d="M197.241 143.448h8.966v8.966h-8.966z"/>
  <path fill="#FF00C7" d="M188.276 143.448h8.966v8.966h-8.966zm26.896 0h8.966v8.966h-8.966zm8.966 0h8.966v8.966h-8.966z"/>
  <path fill="#FF00C7" d="M233.103 143.448h8.966v8.966h-8.966zm-53.793 0h8.966v8.966h-8.966z"/>
  <path fill="#FF00C7" d="M170.345 143.448h8.966v8.966h-8.966zm80.69 35.862v8.966h-8.966v-8.966z"/>
  <path fill="#FF00C7" d="M251.035 170.345v8.966h-8.966v-8.966zm0-8.966v8.966h-8.966v-8.966zm0 26.897v8.966h-8.966v-8.966z"/>
  <path fill="#FF00C7" d="M251.035 197.241v8.966h-8.966v-8.966z"/>
  <path fill="#FF00C7" d="M251.035 206.207v8.966h-8.966v-8.966zm0-53.793v8.966h-8.966v-8.966zM179.31 179.31v8.966h-8.966v-8.966z"/>
  <path fill="#FF00C7" d="M179.31 170.345v8.966h-8.966v-8.966zm0-8.966v8.966h-8.966v-8.966zm0 26.897v8.966h-8.966v-8.966z"/>
  <path fill="#FF00C7" d="M179.31 197.241v8.966h-8.966v-8.966z"/>
  <path fill="#FF00C7" d="M179.31 206.207v8.966h-8.966v-8.966z"/>
  <path fill="#FF00C7" d="M170.345 215.172v8.966h-8.966v-8.966zm-8.966 0v8.966h-8.966v-8.966zm17.931 8.966v8.966h-8.966v-8.966z"/>
  <path fill="#FF00C7" d="M179.31 233.103v8.966h-8.966v-8.966zm8.966 0v8.966h-8.966v-8.966zm17.931 0v8.966h-8.966v-8.966z"/>
  <path fill="#FF00C7" d="M215.172 233.103v8.966h-8.966v-8.966zm8.966 0v8.966h-8.966v-8.966z"/>
  <path fill="#FF00C7" d="M233.103 233.103v8.966h-8.966v-8.966z"/>
  <path fill="#FF00C7" d="M242.069 233.103v8.966h-8.966v-8.966zm8.966-8.965v8.966h-8.966v-8.966zm-53.794 8.965v8.966h-8.966v-8.966zm-35.862-26.896v8.966h-8.966v-8.966z"/>
  <path fill="#FF00C7" d="M161.379 197.241v8.966h-8.966v-8.966z"/>
  <path fill="#FF00C7" d="M161.379 188.276v8.966h-8.966v-8.966zm0-8.966v8.966h-8.966v-8.966z"/>
  <path fill="#FF00C7" d="M161.379 170.345v8.966h-8.966v-8.966zm0-8.966v8.966h-8.966v-8.966zm8.966-8.965v8.966h-8.966v-8.966zm17.931 26.896v8.966h-8.966v-8.966z"/>
  <path fill="#FF00C7" d="M188.276 170.345v8.966h-8.966v-8.966zm0-8.966v8.966h-8.966v-8.966zm0 26.897v8.966h-8.966v-8.966z"/>
  <path fill="#FF00C7" d="M188.276 197.241v8.966h-8.966v-8.966z"/>
  <path fill="#FF00C7" d="M188.276 206.207v8.966h-8.966v-8.966zm0-53.793v8.966h-8.966v-8.966zm-8.966 0v8.966h-8.966v-8.966zm17.931 26.896v8.966h-8.966v-8.966z"/>
  <path fill="#FF00C7" d="M197.241 170.345v8.966h-8.966v-8.966zm0-8.966v8.966h-8.966v-8.966zm0 26.897v8.966h-8.966v-8.966z"/>
  <path fill="#FF00C7" d="M197.241 197.241v8.966h-8.966v-8.966z"/>
  <path fill="#FF00C7" d="M197.241 206.207v8.966h-8.966v-8.966zm0-53.793v8.966h-8.966v-8.966zm8.966 26.896v8.966h-8.966v-8.966z"/>
  <path fill="#FF00C7" d="M206.207 170.345v8.966h-8.966v-8.966zm0-8.966v8.966h-8.966v-8.966zm0 26.897v8.966h-8.966v-8.966z"/>
  <path fill="#FF00C7" d="M206.207 197.241v8.966h-8.966v-8.966z"/>
  <path fill="#FF00C7" d="M206.207 206.207v8.966h-8.966v-8.966zm0-53.793v8.966h-8.966v-8.966zm17.931 26.896v8.966h-8.966v-8.966z"/>
  <path fill="#FF00C7" d="M224.138 170.345v8.966h-8.966v-8.966zm0-8.966v8.966h-8.966v-8.966zm0 26.897v8.966h-8.966v-8.966z"/>
  <path fill="#FF00C7" d="M224.138 197.241v8.966h-8.966v-8.966z"/>
  <path fill="#FF00C7" d="M224.138 206.207v8.966h-8.966v-8.966zm0-53.793v8.966h-8.966v-8.966zm8.965 26.896v8.966h-8.966v-8.966z"/>
  <path fill="#FF00C7" d="M233.103 170.345v8.966h-8.966v-8.966zm0-8.966v8.966h-8.966v-8.966zm0 26.897v8.966h-8.966v-8.966z"/>
  <path fill="#FF00C7" d="M233.103 197.241v8.966h-8.966v-8.966z"/>
  <path fill="#FF00C7" d="M233.103 206.207v8.966h-8.966v-8.966zm0-53.793v8.966h-8.966v-8.966zm8.966 26.896v8.966h-8.966v-8.966z"/>
  <path fill="#FF00C7" d="M242.069 170.345v8.966h-8.966v-8.966zm0-8.966v8.966h-8.966v-8.966zm0 26.897v8.966h-8.966v-8.966z"/>
  <path fill="#FF00C7" d="M242.069 197.241v8.966h-8.966v-8.966z"/>
  <path fill="#FF00C7" d="M242.069 206.207v8.966h-8.966v-8.966zm0-53.793v8.966h-8.966v-8.966zm-53.793 17.931h8.966v8.966h-8.966zm26.896 0h8.966v8.966h-8.966zm8.966 0h8.966v8.966h-8.966zm-8.966-8.966h8.966v8.966h-8.966z"/>
  <path fill="#FF00C7" d="M206.207 152.414h8.966v8.966h-8.966z"/>
  <path fill="#F99ECF" d="M143.448 152.414h8.966v8.966h-8.966z"/>
  <path fill="#F99ECF" d="M134.483 161.379h8.966v8.966h-8.966zm0 8.966h8.966v8.966h-8.966z"/>
  <path fill="#F99ECF" d="M134.483 179.31h8.966v8.966h-8.966zm0 8.966h8.966v8.966h-8.966z"/>
  <path fill="#F99ECF" d="M134.483 197.241h8.966v8.966h-8.966z"/>
  <path fill="#F99ECF" d="M134.483 206.207h8.966v8.966h-8.966z"/>
  <path fill="#F99ECF" d="M134.483 215.172h8.966v8.966h-8.966zm8.965 8.966h8.966v8.966h-8.966z"/>
  <path fill="#F99ECF" d="M143.448 233.103h8.966v8.966h-8.966z"/>
  <path fill="#F99ECF" d="M134.483 224.138h8.966v8.966h-8.966zm17.931 17.931h8.966v8.966h-8.966z"/>
  <path fill="#F99ECF" d="M143.448 242.069h8.966v8.966h-8.966zm17.931 0h8.966v8.966h-8.966zm8.966 8.965h8.966V260h-8.966z"/>
  <path fill="#F99ECF" d="M161.379 251.034h8.966V260h-8.966zm17.931 0h8.966V260h-8.966zm8.966 0h8.966V260h-8.966z"/>
  <path fill="#F99ECF" d="M197.241 251.034h8.966V260h-8.966z"/>
  <path fill="#F99ECF" d="M206.207 251.034h8.966V260h-8.966z"/>
  <path fill="#F99ECF" d="M215.172 251.034h8.966V260h-8.966zm8.966 0h8.966V260h-8.966z"/>
  <path fill="#F99ECF" d="M233.103 251.034h8.966V260h-8.966z"/>
  <path fill="#F99ECF" d="M242.069 242.069h8.966v8.966h-8.966z"/>
  <path fill="#F99ECF" d="M251.035 233.103h8.966v8.966h-8.966zm-107.587-89.655h8.966v8.966h-8.966zm17.931-8.965h8.966v8.966h-8.966z"/>
  <path fill="#FFDBF7" d="M206.207 206.207h8.965v8.966h-8.965v-8.966Z"/>
  <path fill="#FFDBF7" d="M206.207 197.241h8.965v8.966h-8.965v-8.966Zm0-8.965h8.965v8.965h-8.965v-8.965Zm0-8.966h8.965v8.966h-8.965v-8.966Zm0-8.965h8.965v8.965h-8.965v-8.965Zm0-8.966h8.965v8.966h-8.965v-8.966Zm0-8.965h8.965v8.965h-8.965v-8.965Z"/>
  <path fill="#FFDBF7" d="M197.241 188.276h8.966v8.965h-8.966v-8.965Zm0 8.965h8.966v8.966h-8.966v-8.966Zm-8.965-8.965h8.965v8.965h-8.965v-8.965Zm26.896 0h8.966v8.965h-8.966v-8.965Zm8.966 0h8.965v8.965h-8.965v-8.965Zm-8.966 8.965h8.966v8.966h-8.966v-8.966Z"/>
  <path fill="#E30CB4" d="M313.793 242.069h8.966v8.966h-8.966z"/>
  <path fill="#E30CB4" d="M304.828 242.069h8.966v8.966h-8.966z"/>
  <path fill="#E30CB4" d="M304.828 242.069h8.966v8.966h-8.966z"/>
  <path fill="#E30CB4" d="M295.862 233.103h8.966v8.966h-8.966z"/>
  <path fill="#E30CB4" d="M286.897 233.103h8.966v8.966h-8.966z"/>
  <path fill="#E30CB4" d="M286.897 224.138h8.966v8.966h-8.966zm-8.966-8.966h8.966v8.966h-8.966z"/>
  <path fill="#E30CB4" d="M277.931 206.207h8.966v8.966h-8.966zm17.931-62.759h8.966v8.966h-8.966zm-17.931 17.931h8.966v8.966h-8.966zm8.966-8.965h8.966v8.966h-8.966z"/>
  <path fill="#E30CB4" d="M286.897 143.448h8.966v8.966h-8.966zm-8.966 35.862h8.966v8.966h-8.966z"/>
  <path fill="#E30CB4" d="M277.931 170.345h8.966v8.966h-8.966zm0 17.931h8.966v8.966h-8.966z"/>
  <path fill="#E30CB4" d="M277.931 197.241h8.966v8.966h-8.966zm44.828 44.828h8.966v8.966h-8.966z"/>
  <path fill="#E30CB4" d="M331.724 242.069h8.966v8.966h-8.966zm-17.931-107.586h8.966v8.966h-8.966zm8.966 0h8.966v8.966h-8.966z"/>
  <path fill="#E30CB4" d="M331.724 134.483h8.966v8.966h-8.966zm8.966 0h8.966v8.966h-8.966z"/>
  <path fill="#E30CB4" d="M349.655 134.483h8.966v8.966h-8.966zm35.862 80.689h8.966v8.966h-8.966zm0 8.966h8.966v8.966h-8.966z"/>
  <path fill="#E30CB4" d="M376.552 233.103h8.966v8.966h-8.966zm-8.966 8.966h8.966v8.966h-8.966z"/>
  <path fill="#E30CB4" d="M358.621 242.069h8.966v8.966h-8.966zm-8.966 0h8.966v8.966h-8.966z"/>
  <path fill="#E30CB4" d="M340.69 242.069h8.966v8.966h-8.966zm44.827-35.862h8.966v8.966h-8.966z"/>
  <path fill="#E30CB4" d="M385.517 197.241h8.966v8.966h-8.966z"/>
  <path fill="#E30CB4" d="M385.517 188.276h8.966v8.966h-8.966zm0-8.966h8.966v8.966h-8.966z"/>
  <path fill="#E30CB4" d="M385.517 170.345h8.966v8.966h-8.966zm0-8.966h8.966v8.966h-8.966z"/>
  <path fill="#E30CB4" d="M385.517 152.414h8.966v8.966h-8.966z"/>
  <path fill="#E30CB4" d="M376.552 143.448h8.966v8.966h-8.966zm-71.724-8.965h8.966v8.966h-8.966zm62.758 0h8.966v8.966h-8.966z"/>
  <path fill="#E30CB4" d="M358.621 134.483h8.966v8.966h-8.966z"/>
  <path fill="#FF5CDB" d="M376.552 215.172h8.966v8.966h-8.966zm-8.966 8.966h8.966v8.966h-8.966z"/>
  <path fill="#FF5CDB" d="M358.621 224.138h8.966v8.966h-8.966zm-8.966 0h8.966v8.966h-8.966z"/>
  <path fill="#FF5CDB" d="M340.69 224.138h8.966v8.966h-8.966zm-8.966 0h8.966v8.966h-8.966z"/>
  <path fill="#FF5CDB" d="M322.759 224.138h8.966v8.966h-8.966zm-8.966 0h8.966v8.966h-8.966zm-8.965-8.966h8.966v8.966h-8.966zm-8.966-8.965h8.966v8.966h-8.966z"/>
  <path fill="#FF5CDB" d="M295.862 197.241h8.966v8.966h-8.966z"/>
  <path fill="#FF5CDB" d="M295.862 188.276h8.966v8.966h-8.966zm0-8.966h8.966v8.966h-8.966zm0-8.965h8.966v8.965h-8.966v-8.965Zm0-8.966h8.966v8.966h-8.966zm0 62.759h8.966v8.966h-8.966z"/>
  <path fill="#FF00C7" d="M340.69 170.345h8.966v8.966h-8.966z"/>
  <path fill="#FF00C7" d="M340.69 179.31h8.966v8.966h-8.966zm0 8.966h8.966v8.966h-8.966z"/>
  <path fill="#FF00C7" d="M340.69 197.241h8.966v8.966h-8.966z"/>
  <path fill="#FF00C7" d="M340.69 206.207h8.966v8.966h-8.966zm0-44.828h8.966v8.966h-8.966zm-8.966 0h8.966v8.966h-8.966zm0 8.966h8.966v8.966h-8.966z"/>
  <path fill="#FF00C7" d="M331.724 179.31h8.966v8.966h-8.966z"/>
  <path fill="#FF00C7" d="M322.759 179.31h8.966v8.966h-8.966zm0 8.966h8.966v8.966h-8.966zm10.758 0h8.966v8.966h-8.966z"/>
  <path fill="#FF00C7" d="M329.333 188.276h8.966v8.966h-8.966zm11.357 26.896h8.966v8.966h-8.966zm-8.966 0h8.966v8.966h-8.966z"/>
  <path fill="#FF00C7" d="M322.759 215.172h8.966v8.966h-8.966zm26.896 0h8.966v8.966h-8.966zm8.966 0h8.966v8.966h-8.966z"/>
  <path fill="#FF00C7" d="M367.586 215.172h8.966v8.966h-8.966zm-53.793 0h8.966v8.966h-8.966zm26.897-71.724h8.966v8.966h-8.966zm-8.966 0h8.966v8.966h-8.966z"/>
  <path fill="#FF00C7" d="M322.759 143.448h8.966v8.966h-8.966zm26.896 0h8.966v8.966h-8.966zm8.966 0h8.966v8.966h-8.966z"/>
  <path fill="#FF00C7" d="M367.586 143.448h8.966v8.966h-8.966zm-53.793 0h8.966v8.966h-8.966z"/>
  <path fill="#FF00C7" d="M304.828 143.448h8.966v8.966h-8.966zm80.689 35.862v8.966h-8.966v-8.966z"/>
  <path fill="#FF00C7" d="M385.517 170.345v8.966h-8.966v-8.966zm0-8.966v8.966h-8.966v-8.966zm0 26.897v8.966h-8.966v-8.966z"/>
  <path fill="#FF00C7" d="M385.517 197.241v8.966h-8.966v-8.966z"/>
  <path fill="#FF00C7" d="M385.517 206.207v8.966h-8.966v-8.966zm0-53.793v8.966h-8.966v-8.966zm-71.724 26.896v8.966h-8.966v-8.966z"/>
  <path fill="#FF00C7" d="M313.793 170.345v8.966h-8.966v-8.966zm0-8.966v8.966h-8.966v-8.966zm0 26.897v8.966h-8.966v-8.966z"/>
  <path fill="#FF00C7" d="M313.793 197.241v8.966h-8.966v-8.966z"/>
  <path fill="#FF00C7" d="M313.793 206.207v8.966h-8.966v-8.966z"/>
  <path fill="#FF00C7" d="M304.828 215.172v8.966h-8.966v-8.966z"/>
  <path fill="#FF00C7" d="M295.862 215.172v8.966h-8.966v-8.966zm17.931 8.966v8.966h-8.966v-8.966z"/>
  <path fill="#FF00C7" d="M313.793 233.103v8.966h-8.966v-8.966zm8.966 0v8.966h-8.966v-8.966zm17.931 0v8.966h-8.966v-8.966z"/>
  <path fill="#FF00C7" d="M349.655 233.103v8.966h-8.966v-8.966zm8.966 0v8.966h-8.966v-8.966z"/>
  <path fill="#FF00C7" d="M367.586 233.103v8.966h-8.966v-8.966zm8.966 0v8.966h-8.966v-8.966z"/>
  <path fill="#FF00C7" d="M385.517 224.138v8.966h-8.966v-8.966zm-53.793 8.965v8.966h-8.966v-8.966zm-35.862-26.896v8.966h-8.966v-8.966z"/>
  <path fill="#FF00C7" d="M295.862 197.241v8.966h-8.966v-8.966z"/>
  <path fill="#FF00C7" d="M295.862 188.276v8.966h-8.966v-8.966zm0-8.966v8.966h-8.966v-8.966z"/>
  <path fill="#FF00C7" d="M295.862 170.345v8.966h-8.966v-8.966zm0-8.966v8.966h-8.966v-8.966z"/>
  <path fill="#FF00C7" d="M304.828 152.414v8.966h-8.966v-8.966zm17.931 26.896v8.966h-8.966v-8.966z"/>
  <path fill="#FF00C7" d="M322.759 170.345v8.966h-8.966v-8.966zm0-8.966v8.966h-8.966v-8.966zm0 26.897v8.966h-8.966v-8.966z"/>
  <path fill="#FF00C7" d="M322.759 197.241v8.966h-8.966v-8.966z"/>
  <path fill="#FF00C7" d="M322.759 206.207v8.966h-8.966v-8.966zm0-53.793v8.966h-8.966v-8.966zm-8.966 0v8.966h-8.966v-8.966zm17.931 26.896v8.966h-8.966v-8.966z"/>
  <path fill="#FF00C7" d="M331.724 170.345v8.966h-8.966v-8.966zm0-8.966v8.966h-8.966v-8.966zm0 26.897v8.966h-8.966v-8.966z"/>
  <path fill="#FF00C7" d="M331.724 197.241v8.966h-8.966v-8.966z"/>
  <path fill="#FF00C7" d="M331.724 206.207v8.966h-8.966v-8.966zm0-53.793v8.966h-8.966v-8.966zm8.966 26.896v8.966h-8.966v-8.966z"/>
  <path fill="#FF00C7" d="M340.69 170.345v8.966h-8.966v-8.966zm0-8.966v8.966h-8.966v-8.966zm0 26.897v8.966h-8.966v-8.966z"/>
  <path fill="#FF00C7" d="M340.69 197.241v8.966h-8.966v-8.966z"/>
  <path fill="#FF00C7" d="M340.69 206.207v8.966h-8.966v-8.966zm0-53.793v8.966h-8.966v-8.966zm17.931 26.896v8.966h-8.966v-8.966z"/>
  <path fill="#FF00C7" d="M358.621 170.345v8.966h-8.966v-8.966zm0-8.966v8.966h-8.966v-8.966zm0 26.897v8.966h-8.966v-8.966z"/>
  <path fill="#FF00C7" d="M358.621 197.241v8.966h-8.966v-8.966z"/>
  <path fill="#FF00C7" d="M358.621 206.207v8.966h-8.966v-8.966zm0-53.793v8.966h-8.966v-8.966zm8.965 26.896v8.966h-8.966v-8.966z"/>
  <path fill="#FF00C7" d="M367.586 170.345v8.966h-8.966v-8.966zm0-8.966v8.966h-8.966v-8.966zm0 26.897v8.966h-8.966v-8.966z"/>
  <path fill="#FF00C7" d="M367.586 197.241v8.966h-8.966v-8.966z"/>
  <path fill="#FF00C7" d="M367.586 206.207v8.966h-8.966v-8.966zm0-53.793v8.966h-8.966v-8.966zm8.966 26.896v8.966h-8.966v-8.966z"/>
  <path fill="#FF00C7" d="M376.552 170.345v8.966h-8.966v-8.966zm0-8.966v8.966h-8.966v-8.966zm0 26.897v8.966h-8.966v-8.966z"/>
  <path fill="#FF00C7" d="M376.552 197.241v8.966h-8.966v-8.966z"/>
  <path fill="#FF00C7" d="M376.552 206.207v8.966h-8.966v-8.966zm0-53.793v8.966h-8.966v-8.966zm-53.793 17.931h8.966v8.966h-8.966zm26.896 0h8.966v8.966h-8.966zm8.966 0h8.966v8.966h-8.966zm-8.966-8.966h8.966v8.966h-8.966z"/>
  <path fill="#FF00C7" d="M340.69 152.414h8.966v8.966h-8.966z"/>
  <path fill="#F99ECF" d="M277.931 152.414h8.966v8.966h-8.966z"/>
  <path fill="#F99ECF" d="M268.966 161.379h8.966v8.966h-8.966zm0 8.966h8.966v8.966h-8.966z"/>
  <path fill="#F99ECF" d="M268.966 179.31h8.966v8.966h-8.966zm0 8.966h8.966v8.966h-8.966z"/>
  <path fill="#F99ECF" d="M268.966 197.241h8.966v8.966h-8.966z"/>
  <path fill="#F99ECF" d="M268.966 206.207h8.966v8.966h-8.966z"/>
  <path fill="#F99ECF" d="M268.966 215.172h8.966v8.966h-8.966zm8.965 8.966h8.966v8.966h-8.966z"/>
  <path fill="#F99ECF" d="M277.931 233.103h8.966v8.966h-8.966z"/>
  <path fill="#F99ECF" d="M268.966 224.138h8.966v8.966h-8.966zm17.931 17.931h8.966v8.966h-8.966zm-8.966 0h8.966v8.966h-8.966z"/>
  <path fill="#F99ECF" d="M295.862 242.069h8.966v8.966h-8.966z"/>
  <path fill="#F99ECF" d="M304.828 251.034h8.966V260h-8.966z"/>
  <path fill="#F99ECF" d="M295.862 251.034h8.966V260h-8.966zm17.931 0h8.966V260h-8.966zm8.966 0h8.966V260h-8.966z"/>
  <path fill="#F99ECF" d="M331.724 251.034h8.966V260h-8.966zm8.966 0h8.966V260h-8.966z"/>
  <path fill="#F99ECF" d="M349.655 251.034h8.966V260h-8.966zm8.966 0h8.966V260h-8.966z"/>
  <path fill="#F99ECF" d="M367.586 251.034h8.966V260h-8.966zm8.966-8.965h8.966v8.966h-8.966z"/>
  <path fill="#F99ECF" d="M385.517 233.103h8.966v8.966h-8.966zm-107.586-89.655h8.966v8.966h-8.966zm17.931-8.965h8.966v8.966h-8.966z"/>
  <path fill="#FFDBF7" d="M313.793 184.092h8.966v8.966h-8.966v-8.966Zm8.966 0h8.965v8.966h-8.965v-8.966Zm8.965 0h8.966v8.966h-8.966v-8.966Zm8.966 0h8.965v8.966h-8.965v-8.966Zm8.965-8.966h8.966v8.966h-8.966v-8.966Z"/>
  <path fill="#FFDBF7" d="M349.655 166.161h8.966v8.966h-8.966v-8.966Zm0 26.896h8.966v8.966h-8.966v-8.966Zm0 8.966h8.966v8.965h-8.966v-8.965Zm17.931-17.931h8.966v8.966h-8.966v-8.966Zm-8.965 8.965h8.965v8.966h-8.965v-8.966Z"/>
  <path fill="#FFDBF7" d="M358.621 184.092h8.965v8.966h-8.965v-8.966Zm-8.966 0h8.966v8.966h-8.966v-8.966Zm8.966-8.966h8.965v8.966h-8.965v-8.966Z"/>
  <path fill="#E30CB4" d="M44.828 242.069h8.966v8.966h-8.966zm-8.966 0h8.966v8.966h-8.966z"/>
  <path fill="#E30CB4" d="M35.862 242.069h8.966v8.966h-8.966zm-8.966-8.966h8.966v8.966h-8.966z"/>
  <path fill="#E30CB4" d="M17.931 233.103h8.966v8.966h-8.966z"/>
  <path fill="#E30CB4" d="M17.931 224.138h8.966v8.966h-8.966zm-8.966-8.966h8.966v8.966H8.965z"/>
  <path fill="#E30CB4" d="M8.965 206.207h8.966v8.966H8.965zm17.931-62.759h8.966v8.966h-8.966zM8.965 161.379h8.966v8.966H8.965zm8.966-8.965h8.966v8.966h-8.966z"/>
  <path fill="#E30CB4" d="M17.931 143.448h8.966v8.966h-8.966zM8.965 179.31h8.966v8.966H8.965z"/>
  <path fill="#E30CB4" d="M8.965 170.345h8.966v8.966H8.965zm0 17.931h8.966v8.966H8.965z"/>
  <path fill="#E30CB4" d="M8.965 197.241h8.966v8.966H8.965zm44.828 44.828h8.966v8.966h-8.966z"/>
  <path fill="#E30CB4" d="M62.759 242.069h8.966v8.966h-8.966zM44.828 134.483h8.966v8.966h-8.966z"/>
  <path fill="#E30CB4" d="M53.793 134.483h8.966v8.966h-8.966z"/>
  <path fill="#E30CB4" d="M62.759 134.483h8.966v8.966h-8.966z"/>
  <path fill="#E30CB4" d="M71.724 134.483h8.966v8.966h-8.966zm8.966 0h8.966v8.966H80.69zm35.862 80.689h8.966v8.966h-8.966zm0 8.966h8.966v8.966h-8.966zm-8.966 8.965h8.966v8.966h-8.966z"/>
  <path fill="#E30CB4" d="M98.621 242.069h8.966v8.966h-8.966zm-8.966 0h8.966v8.966h-8.966z"/>
  <path fill="#E30CB4" d="M80.69 242.069h8.966v8.966H80.69zm-8.966 0h8.966v8.966h-8.966zm44.828-35.862h8.966v8.966h-8.966z"/>
  <path fill="#E30CB4" d="M116.552 197.241h8.966v8.966h-8.966z"/>
  <path fill="#E30CB4" d="M116.552 188.276h8.966v8.966h-8.966zm0-8.966h8.966v8.966h-8.966z"/>
  <path fill="#E30CB4" d="M116.552 170.345h8.966v8.966h-8.966zm0-8.966h8.966v8.966h-8.966z"/>
  <path fill="#E30CB4" d="M116.552 152.414h8.966v8.966h-8.966zm-8.966-8.966h8.966v8.966h-8.966zm-71.724-8.965h8.966v8.966h-8.966z"/>
  <path fill="#E30CB4" d="M98.621 134.483h8.966v8.966h-8.966zm-8.966 0h8.966v8.966h-8.966z"/>
  <path fill="#FF5CDB" d="M107.586 215.172h8.966v8.966h-8.966zm-8.965 8.966h8.966v8.966h-8.966zm-8.966 0h8.966v8.966h-8.966z"/>
  <path fill="#FF5CDB" d="M80.69 224.138h8.966v8.966H80.69zm-8.966 0h8.966v8.966h-8.966z"/>
  <path fill="#FF5CDB" d="M62.759 224.138h8.966v8.966h-8.966z"/>
  <path fill="#FF5CDB" d="M53.793 224.138h8.966v8.966h-8.966z"/>
  <path fill="#FF5CDB" d="M44.828 224.138h8.966v8.966h-8.966zm-8.966-8.966h8.966v8.966h-8.966zm-8.966-8.965h8.966v8.966h-8.966z"/>
  <path fill="#FF5CDB" d="M26.896 197.241h8.966v8.966h-8.966z"/>
  <path fill="#FF5CDB" d="M26.896 188.276h8.966v8.966h-8.966zm0-8.966h8.966v8.966h-8.966zm0-8.965h8.966v8.965h-8.966v-8.965Zm0-8.966h8.966v8.966h-8.966zm0 62.759h8.966v8.966h-8.966z"/>
  <path fill="#FF00C7" d="M71.724 170.345h8.966v8.966h-8.966z"/>
  <path fill="#FF00C7" d="M71.724 179.31h8.966v8.966h-8.966zm0 8.966h8.966v8.966h-8.966z"/>
  <path fill="#FF00C7" d="M71.724 197.241h8.966v8.966h-8.966z"/>
  <path fill="#FF00C7" d="M71.724 206.207h8.966v8.966h-8.966zm0-44.828h8.966v8.966h-8.966z"/>
  <path fill="#FF00C7" d="M62.759 161.379h8.966v8.966h-8.966zm0 8.966h8.966v8.966h-8.966z"/>
  <path fill="#FF00C7" d="M62.759 179.31h8.966v8.966h-8.966z"/>
  <path fill="#FF00C7" d="M53.793 179.31h8.966v8.966h-8.966zm0 8.966h8.966v8.966h-8.966zm10.759 0h8.966v8.966h-8.966z"/>
  <path fill="#FF00C7" d="M60.368 188.276h8.966v8.966h-8.966zm11.356 26.896h8.966v8.966h-8.966z"/>
  <path fill="#FF00C7" d="M62.759 215.172h8.966v8.966h-8.966z"/>
  <path fill="#FF00C7" d="M53.793 215.172h8.966v8.966h-8.966zm26.897 0h8.966v8.966H80.69z"/>
  <path fill="#FF00C7" d="M89.655 215.172h8.966v8.966h-8.966zm8.966 0h8.966v8.966h-8.966zm-53.793 0h8.966v8.966h-8.966zm26.896-71.724h8.966v8.966h-8.966z"/>
  <path fill="#FF00C7" d="M62.759 143.448h8.966v8.966h-8.966z"/>
  <path fill="#FF00C7" d="M53.793 143.448h8.966v8.966h-8.966zm26.897 0h8.966v8.966H80.69z"/>
  <path fill="#FF00C7" d="M89.655 143.448h8.966v8.966h-8.966zm8.966 0h8.966v8.966h-8.966zm-53.793 0h8.966v8.966h-8.966zm-8.966 0h8.966v8.966h-8.966zm80.69 35.862v8.966h-8.966v-8.966z"/>
  <path fill="#FF00C7" d="M116.552 170.345v8.966h-8.966v-8.966zm0-8.966v8.966h-8.966v-8.966zm0 26.897v8.966h-8.966v-8.966z"/>
  <path fill="#FF00C7" d="M116.552 197.241v8.966h-8.966v-8.966z"/>
  <path fill="#FF00C7" d="M116.552 206.207v8.966h-8.966v-8.966zm0-53.793v8.966h-8.966v-8.966zM44.828 179.31v8.966h-8.966v-8.966z"/>
  <path fill="#FF00C7" d="M44.828 170.345v8.966h-8.966v-8.966zm0-8.966v8.966h-8.966v-8.966zm0 26.897v8.966h-8.966v-8.966z"/>
  <path fill="#FF00C7" d="M44.828 197.241v8.966h-8.966v-8.966z"/>
  <path fill="#FF00C7" d="M44.828 206.207v8.966h-8.966v-8.966zm-8.966 8.965v8.966h-8.966v-8.966zm-8.966 0v8.966H17.93v-8.966zm17.932 8.966v8.966h-8.966v-8.966z"/>
  <path fill="#FF00C7" d="M44.828 233.103v8.966h-8.966v-8.966z"/>
  <path fill="#FF00C7" d="M53.793 233.103v8.966h-8.966v-8.966zm17.931 0v8.966h-8.966v-8.966zm8.966 0v8.966h-8.966v-8.966z"/>
  <path fill="#FF00C7" d="M89.655 233.103v8.966h-8.966v-8.966z"/>
  <path fill="#FF00C7" d="M98.62 233.104v8.966h-8.966v-8.966zm8.966-.001v8.966H98.62v-8.966zm8.966-8.965v8.966h-8.966v-8.966zm-53.793 8.965v8.966h-8.966v-8.966zm-35.863-26.896v8.966H17.93v-8.966z"/>
  <path fill="#FF00C7" d="M26.896 197.241v8.966H17.93v-8.966z"/>
  <path fill="#FF00C7" d="M26.896 188.276v8.966H17.93v-8.966zm0-8.966v8.966H17.93v-8.966z"/>
  <path fill="#FF00C7" d="M26.896 170.345v8.966H17.93v-8.966zm0-8.966v8.966H17.93v-8.966zm8.966-8.965v8.966h-8.966v-8.966zm17.931 26.896v8.966h-8.966v-8.966z"/>
  <path fill="#FF00C7" d="M53.793 170.345v8.966h-8.966v-8.966zm0-8.966v8.966h-8.966v-8.966zm0 26.897v8.966h-8.966v-8.966z"/>
  <path fill="#FF00C7" d="M53.793 197.241v8.966h-8.966v-8.966z"/>
  <path fill="#FF00C7" d="M53.793 206.207v8.966h-8.966v-8.966zm0-53.793v8.966h-8.966v-8.966z"/>
  <path fill="#FF00C7" d="M44.828 152.414v8.966h-8.966v-8.966zm17.931 26.896v8.966h-8.966v-8.966z"/>
  <path fill="#FF00C7" d="M62.759 170.345v8.966h-8.966v-8.966zm0-8.966v8.966h-8.966v-8.966zm0 26.897v8.966h-8.966v-8.966z"/>
  <path fill="#FF00C7" d="M62.759 197.241v8.966h-8.966v-8.966z"/>
  <path fill="#FF00C7" d="M62.759 206.207v8.966h-8.966v-8.966zm0-53.793v8.966h-8.966v-8.966zm8.965 26.896v8.966h-8.966v-8.966z"/>
  <path fill="#FF00C7" d="M71.724 170.345v8.966h-8.966v-8.966zm0-8.966v8.966h-8.966v-8.966zm0 26.897v8.966h-8.966v-8.966z"/>
  <path fill="#FF00C7" d="M71.724 197.241v8.966h-8.966v-8.966z"/>
  <path fill="#FF00C7" d="M71.724 206.207v8.966h-8.966v-8.966zm0-53.793v8.966h-8.966v-8.966zm17.931 26.896v8.966h-8.966v-8.966z"/>
  <path fill="#FF00C7" d="M89.655 170.345v8.966h-8.966v-8.966zm0-8.966v8.966h-8.966v-8.966zm0 26.897v8.966h-8.966v-8.966z"/>
  <path fill="#FF00C7" d="M89.655 197.241v8.966h-8.966v-8.966z"/>
  <path fill="#FF00C7" d="M89.655 206.207v8.966h-8.966v-8.966zm0-53.793v8.966h-8.966v-8.966zm8.965 26.897v8.966h-8.966v-8.966z"/>
  <path fill="#FF00C7" d="M98.62 170.346v8.966h-8.966v-8.966zm0-8.966v8.966h-8.966v-8.966zm0 26.897v8.966h-8.966v-8.966z"/>
  <path fill="#FF00C7" d="M98.62 197.242v8.966h-8.966v-8.966zm0 8.966v8.966h-8.966v-8.966zm0-53.793v8.966h-8.966v-8.966zm8.966 26.895v8.966H98.62v-8.966z"/>
  <path fill="#FF00C7" d="M107.586 170.345v8.966H98.62v-8.966zm0-8.966v8.966H98.62v-8.966zm0 26.897v8.966H98.62v-8.966z"/>
  <path fill="#FF00C7" d="M107.586 197.241v8.966H98.62v-8.966z"/>
  <path fill="#FF00C7" d="M107.586 206.207v8.966H98.62v-8.966zm0-53.793v8.966H98.62v-8.966zm-53.793 17.931h8.966v8.966h-8.966zm26.897 0h8.966v8.966H80.69z"/>
  <path fill="#FF00C7" d="M89.655 170.345h8.966v8.966h-8.966zm-8.965-8.966h8.966v8.966H80.69zm-8.966-8.965h8.966v8.966h-8.966z"/>
  <path fill="#F99ECF" d="M8.965 152.414h8.966v8.966H8.965z"/>
  <path fill="#F99ECF" d="M0 161.379h8.966v8.966H0zm0 8.966h8.966v8.966H0z"/>
  <path fill="#F99ECF" d="M0 179.31h8.966v8.966H0zm0 8.966h8.966v8.966H0z"/>
  <path fill="#F99ECF" d="M0 197.241h8.966v8.966H0z"/>
  <path fill="#F99ECF" d="M0 206.207h8.966v8.966H0z"/>
  <path fill="#F99ECF" d="M0 215.172h8.966v8.966H0zm8.965 8.966h8.966v8.966H8.965z"/>
  <path fill="#F99ECF" d="M8.965 233.103h8.966v8.966H8.965z"/>
  <path fill="#F99ECF" d="M0 224.138h8.966v8.966H0zm17.931 17.931h8.966v8.966h-8.966zm-8.966 0h8.966v8.966H8.965z"/>
  <path fill="#F99ECF" d="M26.896 242.069h8.966v8.966h-8.966zm8.966 8.965h8.966V260h-8.966z"/>
  <path fill="#F99ECF" d="M26.896 251.034h8.966V260h-8.966zm17.932 0h8.966V260h-8.966z"/>
  <path fill="#F99ECF" d="M53.793 251.034h8.966V260h-8.966z"/>
  <path fill="#F99ECF" d="M62.759 251.034h8.966V260h-8.966z"/>
  <path fill="#F99ECF" d="M71.724 251.034h8.966V260h-8.966zm8.966 0h8.966V260H80.69z"/>
  <path fill="#F99ECF" d="M89.655 251.034h8.966V260h-8.966zm8.966 0h8.966V260h-8.966z"/>
  <path fill="#F99ECF" d="M107.586 242.069h8.966v8.966h-8.966zm8.966-8.966h8.966v8.966h-8.966zM8.965 143.448h8.966v8.966H8.965zm17.931-8.965h8.966v8.966h-8.966z"/>
  <path fill="#FFDBF7" d="M98.62 183.494h8.966v8.966h-8.965v-8.966Z"/>
  <path fill="#FFDBF7" d="M89.655 183.494h8.966v8.966h-8.966v-8.966Zm-8.965 0h8.965v8.966H80.69v-8.966Zm-8.966 0h8.966v8.966h-8.966v-8.966Zm-8.965-8.965h8.965v8.965H62.76v-8.965Zm0 17.931h8.965v8.965H62.76v-8.965Zm-17.931-8.966h8.965v8.966h-8.965v-8.966Zm17.931-17.931h8.965v8.966H62.76v-8.966Zm-8.966 8.966h8.966v8.965h-8.966v-8.965Z"/>
  <path fill="#FFDBF7" d="M53.793 183.494h8.966v8.966h-8.966v-8.966Zm0 8.966h8.966v8.965h-8.966v-8.965Zm8.966-8.966h8.965v8.966H62.76v-8.966Zm0 17.931h8.965v8.966H62.76v-8.966Z"/>
</svg>
