<svg width="37" height="37" viewBox="0 0 37 37" fill="none" xmlns="http://www.w3.org/2000/svg">
<path opacity="0.4" d="M18.4998 20.5572C24.8855 20.5572 30.0622 15.9553 30.0622 10.2786C30.0622 4.60189 24.8855 0 18.4998 0C12.1141 0 6.9375 4.60189 6.9375 10.2786C6.9375 15.9553 12.1141 20.5572 18.4998 20.5572Z" fill="#868686"/>
<path d="M36.9794 30.8503C36.9898 30.704 36.9898 30.5573 36.9794 30.411C36.9336 29.8704 36.7632 29.3425 36.4776 28.8567C35.3536 26.88 32.2024 25.9846 29.573 25.4777C27.6971 25.1262 25.7911 24.9003 23.8728 24.8019L21.8656 24.6667H20.9624H19.8384H17.1488H16.0248H15.1216L13.1145 24.8019C11.1962 24.9003 9.29013 25.1262 7.41418 25.4777C4.78482 25.917 1.63361 26.8293 0.509609 28.8567C0.224018 29.3425 0.0535816 29.8704 0.00782286 30.411C-0.00260762 30.5573 -0.00260762 30.704 0.00782286 30.8503C-0.00180741 30.9966 -0.00180741 31.1433 0.00782286 31.2896C0.0624173 31.8256 0.239622 32.3476 0.52968 32.827C1.65368 34.8037 4.8049 35.6992 7.43425 36.206C9.31369 36.541 11.2183 36.7668 13.1345 36.8818L15.1417 37.0001H15.6234H16.0449H20.9825H21.404H21.8857L23.8928 36.8818C25.8091 36.7668 27.7137 36.541 29.5931 36.206C32.2225 35.7499 35.3737 34.8544 36.4977 32.827C36.7742 32.3324 36.9441 31.8004 36.9995 31.2558C37.002 31.1204 36.9953 30.985 36.9794 30.8503Z" fill="#868686"/>
</svg>
