<svg xmlns="http://www.w3.org/2000/svg" width="126" height="126" fill="none" viewBox="0 0 126 126">
  <path fill="#E30CB4" d="M44.828 107.586h8.966v8.966h-8.966zm-8.966 0h8.966v8.966h-8.966z"/>
  <path fill="#E30CB4" d="M35.862 107.586h8.966v8.966h-8.966zm-8.966-8.966h8.966v8.966h-8.966z"/>
  <path fill="#E30CB4" d="M17.931 98.62h8.966v8.966h-8.966z"/>
  <path fill="#E30CB4" d="M17.931 89.655h8.966v8.966h-8.966zm-8.965-8.966h8.966v8.966H8.966z"/>
  <path fill="#E30CB4" d="M8.966 71.724h8.966v8.966H8.966zm17.93-62.759h8.966v8.966h-8.966zM8.966 26.896h8.966v8.966H8.966z"/>
  <path fill="#E30CB4" d="M17.931 17.931h8.966v8.966h-8.966zm0-8.966h8.966v8.966h-8.966zM8.966 44.827h8.966v8.966H8.966z"/>
  <path fill="#E30CB4" d="M8.966 35.862h8.966v8.966H8.966zm0 17.931h8.966v8.966H8.966z"/>
  <path fill="#E30CB4" d="M8.966 62.758h8.966v8.966H8.966zm44.827 44.828h8.966v8.966h-8.966z"/>
  <path fill="#E30CB4" d="M62.758 107.586h8.966v8.966h-8.966zM44.828 0h8.966v8.966h-8.966z"/>
  <path fill="#E30CB4" d="M53.793 0h8.966v8.966h-8.966z"/>
  <path fill="#E30CB4" d="M62.758 0h8.966v8.966h-8.966zm8.966 0h8.966v8.966h-8.966zm8.966 0h8.966v8.966H80.69zm35.862 80.689h8.966v8.966h-8.966zm0 8.966h8.966v8.966h-8.966zm-8.966 8.965h8.966v8.966h-8.966zm-8.965 8.966h8.966v8.966h-8.966zm-8.966 0h8.966v8.966h-8.966z"/>
  <path fill="#E30CB4" d="M80.69 107.586h8.966v8.966H80.69zm-8.966 0h8.966v8.966h-8.966zm44.828-35.862h8.966v8.966h-8.966zm0-8.966h8.966v8.966h-8.966z"/>
  <path fill="#E30CB4" d="M116.552 53.793h8.966v8.966h-8.966zm0-8.966h8.966v8.966h-8.966z"/>
  <path fill="#E30CB4" d="M116.552 35.862h8.966v8.966h-8.966zm0-8.966h8.966v8.966h-8.966z"/>
  <path fill="#E30CB4" d="M116.552 17.931h8.966v8.966h-8.966zm-8.966-8.966h8.966v8.966h-8.966zM35.862 0h8.966v8.966h-8.966z"/>
  <path fill="#E30CB4" d="M98.621 0h8.966v8.966h-8.966zm-8.966 0h8.966v8.966h-8.966z"/>
  <path fill="#FF5CDB" d="M107.586 80.689h8.966v8.966h-8.966zm-8.965 8.966h8.966v8.966h-8.966zm-8.966 0h8.966v8.966h-8.966z"/>
  <path fill="#FF5CDB" d="M80.69 89.655h8.966v8.966H80.69zm-8.966 0h8.966v8.966h-8.966zm-8.966 0h8.966v8.966h-8.966z"/>
  <path fill="#FF5CDB" d="M53.793 89.655h8.966v8.966h-8.966z"/>
  <path fill="#FF5CDB" d="M44.828 89.655h8.966v8.966h-8.966zm-8.966-8.966h8.966v8.966h-8.966zm-8.966-8.965h8.966v8.966h-8.966zm0-8.966h8.966v8.966h-8.966z"/>
  <path fill="#FF5CDB" d="M26.896 53.793h8.966v8.966h-8.966zm0-8.966h8.966v8.966h-8.966z"/>
  <path fill="#FF5CDB" d="M26.896 35.862h8.966v8.966h-8.966v-8.966Zm0-8.966h8.966v8.966h-8.966zm0 62.759h8.966v8.966h-8.966z"/>
  <path fill="#FF00C7" d="M71.724 35.862h8.966v8.966h-8.966z"/>
  <path fill="#FF00C7" d="M71.724 44.827h8.966v8.966h-8.966zm0 8.966h8.966v8.966h-8.966z"/>
  <path fill="#FF00C7" d="M71.724 62.758h8.966v8.966h-8.966zm0 8.966h8.966v8.966h-8.966zm0-44.828h8.966v8.966h-8.966zm-8.966 0h8.966v8.966h-8.966zm0 8.966h8.966v8.966h-8.966z"/>
  <path fill="#FF00C7" d="M62.758 44.827h8.966v8.966h-8.966z"/>
  <path fill="#FF00C7" d="M53.793 44.827h8.966v8.966h-8.966zm0 8.966h8.966v8.966h-8.966zm10.759 0h8.966v8.966h-8.966z"/>
  <path fill="#FF00C7" d="M60.368 53.793h8.966v8.966h-8.966zm11.356 26.896h8.966v8.966h-8.966zm-8.966 0h8.966v8.966h-8.966z"/>
  <path fill="#FF00C7" d="M53.793 80.689h8.966v8.966h-8.966zm26.897 0h8.966v8.966H80.69z"/>
  <path fill="#FF00C7" d="M89.655 80.689h8.966v8.966h-8.966zm8.966 0h8.966v8.966h-8.966zm-53.793 0h8.966v8.966h-8.966zM71.724 8.965h8.966v8.966h-8.966zm-8.966 0h8.966v8.966h-8.966z"/>
  <path fill="#FF00C7" d="M53.793 8.965h8.966v8.966h-8.966zm26.897 0h8.966v8.966H80.69z"/>
  <path fill="#FF00C7" d="M89.655 8.965h8.966v8.966h-8.966zm8.966 0h8.966v8.966h-8.966zm-53.793 0h8.966v8.966h-8.966zm-8.966 0h8.966v8.966h-8.966zm80.69 35.862v8.966h-8.966v-8.966z"/>
  <path fill="#FF00C7" d="M116.552 35.862v8.966h-8.966v-8.966zm0-8.966v8.966h-8.966v-8.966zm0 26.897v8.966h-8.966v-8.966z"/>
  <path fill="#FF00C7" d="M116.552 62.758v8.966h-8.966v-8.966zm0 8.966v8.966h-8.966v-8.966zm-.001-53.794v8.966h-8.966V17.93zM44.828 44.827v8.966h-8.966v-8.966z"/>
  <path fill="#FF00C7" d="M44.828 35.862v8.966h-8.966v-8.966zm0-8.966v8.966h-8.966v-8.966zm0 26.897v8.966h-8.966v-8.966z"/>
  <path fill="#FF00C7" d="M44.828 62.758v8.966h-8.966v-8.966zm0 8.966v8.966h-8.966v-8.966zm-8.965 8.966v8.966h-8.966V80.69zm-8.966 0v8.966h-8.966V80.69z"/>
  <path fill="#FF00C7" d="M44.828 89.655v8.966h-8.966v-8.966z"/>
  <path fill="#FF00C7" d="M44.828 98.62v8.966h-8.966V98.62z"/>
  <path fill="#FF00C7" d="M53.793 98.62v8.966h-8.966V98.62zm17.931 0v8.966h-8.966V98.62zm8.966 0v8.966h-8.966V98.62z"/>
  <path fill="#FF00C7" d="M89.655 98.62v8.966h-8.966V98.62z"/>
  <path fill="#FF00C7" d="M98.62 98.621v8.966h-8.966v-8.966zm8.966-.001v8.966H98.62V98.62zm8.966-8.965v8.966h-8.966v-8.966zM62.758 98.62v8.966h-8.966V98.62zM26.896 71.724v8.966H17.93v-8.966zm0-8.966v8.966H17.93v-8.966z"/>
  <path fill="#FF00C7" d="M26.896 53.793v8.966H17.93v-8.966zm0-8.966v8.966H17.93v-8.966z"/>
  <path fill="#FF00C7" d="M26.896 35.862v8.966H17.93v-8.966zm0-8.966v8.966H17.93v-8.966zm8.965-8.966v8.966h-8.966V17.93zm17.932 26.897v8.966h-8.966v-8.966z"/>
  <path fill="#FF00C7" d="M53.793 35.862v8.966h-8.966v-8.966zm0-8.966v8.966h-8.966v-8.966zm0 26.897v8.966h-8.966v-8.966z"/>
  <path fill="#FF00C7" d="M53.793 62.758v8.966h-8.966v-8.966zm0 8.966v8.966h-8.966v-8.966zm-.001-53.794v8.966h-8.966V17.93z"/>
  <path fill="#FF00C7" d="M44.827 17.93v8.966h-8.966V17.93zm17.931 26.897v8.966h-8.966v-8.966z"/>
  <path fill="#FF00C7" d="M62.758 35.862v8.966h-8.966v-8.966zm0-8.966v8.966h-8.966v-8.966zm0 26.897v8.966h-8.966v-8.966z"/>
  <path fill="#FF00C7" d="M62.758 62.758v8.966h-8.966v-8.966zm0 8.966v8.966h-8.966v-8.966zm-.001-53.794v8.966h-8.966V17.93zm8.967 26.897v8.966h-8.966v-8.966z"/>
  <path fill="#FF00C7" d="M71.724 35.862v8.966h-8.966v-8.966zm0-8.966v8.966h-8.966v-8.966zm0 26.897v8.966h-8.966v-8.966z"/>
  <path fill="#FF00C7" d="M71.724 62.758v8.966h-8.966v-8.966zm0 8.966v8.966h-8.966v-8.966zm-.001-53.794v8.966h-8.966V17.93zm17.932 26.897v8.966h-8.966v-8.966z"/>
  <path fill="#FF00C7" d="M89.655 35.862v8.966h-8.966v-8.966zm0-8.966v8.966h-8.966v-8.966zm0 26.897v8.966h-8.966v-8.966z"/>
  <path fill="#FF00C7" d="M89.655 62.758v8.966h-8.966v-8.966zm0 8.966v8.966h-8.966v-8.966zm-.001-53.794v8.966h-8.966V17.93zm8.966 26.898v8.966h-8.966v-8.966z"/>
  <path fill="#FF00C7" d="M98.62 35.863v8.966h-8.966v-8.966zm0-8.966v8.966h-8.966v-8.966zm0 26.897v8.966h-8.966v-8.966z"/>
  <path fill="#FF00C7" d="M98.62 62.759v8.966h-8.966v-8.966zm0 8.966v8.966h-8.966v-8.966zm-.001-53.794v8.966h-8.966v-8.966zm8.967 26.896v8.966H98.62v-8.966z"/>
  <path fill="#FF00C7" d="M107.586 35.862v8.966H98.62v-8.966zm0-8.966v8.966H98.62v-8.966zm0 26.897v8.966H98.62v-8.966z"/>
  <path fill="#FF00C7" d="M107.586 62.758v8.966H98.62v-8.966zm0 8.966v8.966H98.62v-8.966zm-.001-53.794v8.966h-8.966V17.93zM53.793 35.862h8.966v8.966h-8.966zm26.897 0h8.966v8.966H80.69z"/>
  <path fill="#FF00C7" d="M89.655 35.862h8.966v8.966h-8.966zm-8.965-8.966h8.966v8.966H80.69zm-8.966-8.965h8.966v8.966h-8.966z"/>
  <path fill="#F99ECF" d="M8.966 17.931h8.966v8.966H8.966zM0 26.896h8.966v8.966H0zm0 8.966h8.966v8.966H0z"/>
  <path fill="#F99ECF" d="M0 44.827h8.966v8.966H0zm0 8.966h8.966v8.966H0z"/>
  <path fill="#F99ECF" d="M0 62.758h8.966v8.966H0zm0 8.966h8.966v8.966H0z"/>
  <path fill="#F99ECF" d="M0 80.689h8.966v8.966H0zm8.966 8.966h8.966v8.966H8.966z"/>
  <path fill="#F99ECF" d="M8.966 98.62h8.966v8.966H8.966zM0 89.655h8.966v8.966H0zm17.931 17.931h8.966v8.966h-8.966z"/>
  <path fill="#F99ECF" d="M8.966 107.586h8.966v8.966H8.966zm17.93 0h8.966v8.966h-8.966zm8.966 8.966h8.966v8.966h-8.966zm-8.966 0h8.966v8.966h-8.966zm17.932 0h8.966v8.966h-8.966z"/>
  <path fill="#F99ECF" d="M53.793 116.552h8.966v8.966h-8.966z"/>
  <path fill="#F99ECF" d="M62.758 116.552h8.966v8.966h-8.966zm8.966 0h8.966v8.966h-8.966zm8.966 0h8.966v8.966H80.69z"/>
  <path fill="#F99ECF" d="M89.655 116.552h8.966v8.966h-8.966zm8.966 0h8.966v8.966h-8.966zm8.965-8.966h8.966v8.966h-8.966zm8.966-8.966h8.966v8.966h-8.966zM8.966 8.965h8.966v8.966H8.966zM26.896 0h8.966v8.966h-8.966z"/>
  <path fill="#FFDBF7" d="M44.828 49.61h8.965v8.965h-8.965v-8.966Z"/>
  <path fill="#FFDBF7" d="M53.793 49.61h8.966v8.965h-8.966v-8.966Z"/>
  <path fill="#FFDBF7" d="M62.758 49.61h8.966v8.965h-8.966v-8.966Zm8.966 0h8.966v8.965h-8.966v-8.966Zm8.966-8.966h8.965v8.965H80.69v-8.965Z"/>
  <path fill="#FFDBF7" d="M80.69 31.678h8.965v8.966H80.69v-8.966Zm0 26.897h8.965v8.965H80.69v-8.966Zm0 8.965h8.965v8.966H80.69V67.54Zm17.93-17.93h8.966v8.965h-8.965v-8.966Zm-8.965 8.965h8.966v8.965h-8.966v-8.966Z"/>
  <path fill="#FFDBF7" d="M89.655 49.61h8.966v8.965h-8.966v-8.966Zm-8.965 0h8.965v8.965H80.69v-8.966Zm8.965-8.966h8.966v8.965h-8.966v-8.965Z"/>
</svg>
