<svg width="18" height="19" viewBox="0 0 18 19" fill="none" xmlns="http://www.w3.org/2000/svg">
<path d="M9.81547 0.554527L11.7401 5.07666C11.8238 5.34798 12.0748 5.52887 12.3258 5.61931L16.6771 6.34285C17.4302 6.34285 17.6813 7.24728 17.1792 7.78993L13.9994 11.3172C13.832 11.4981 13.7484 11.8599 13.7484 12.1312L14.5015 17.0151C14.5852 17.7386 13.9157 18.3717 13.33 18.01L9.39707 15.6584C9.14604 15.4776 8.895 15.4776 8.64397 15.6584L4.71106 18.01C4.12531 18.3717 3.3722 17.8291 3.53956 17.0151L4.29267 12.1312C4.37635 11.8599 4.20899 11.4981 4.04163 11.3172L0.861837 7.78993C0.443441 7.24728 0.694477 6.34285 1.36391 6.25241L5.71521 5.52887C5.96624 5.52887 6.21728 5.25754 6.30096 4.98621L8.22557 0.464084C8.64396 -0.169014 9.48075 -0.169014 9.81547 0.554527Z" fill="#01F401"/>
</svg>
